<svg version="1.1" id="Layer_1" xmlns="http://www.w3.org/2000/svg" xmlns:xlink="http://www.w3.org/1999/xlink" x="0px" y="0px"
	 width="100%" viewBox="0 0 225 225" enable-background="new 0 0 225 225" xml:space="preserve">
<path fill="#FF5722" opacity="1.000000" stroke="none" 
	d="
M1.000000,209.000000 
	C1.000000,145.645767 1.000000,82.291542 1.335689,18.339920 
	C3.469940,11.108671 7.712555,6.470462 13.642297,3.282929 
	C15.345192,2.367538 17.209631,1.752663 19.000000,1.000000 
	C81.687561,1.000000 144.375122,1.000000 207.668808,1.342998 
	C217.771790,3.783632 222.903976,10.349562 226.000000,19.000000 
	C226.000000,81.687561 226.000000,144.375122 225.999496,207.909973 
	C222.806458,217.435104 217.290222,223.687286 208.000000,226.000000 
	C145.312439,226.000000 82.624878,226.000000 19.126312,225.892548 
	C9.263237,223.573975 4.176435,217.272339 1.000000,209.000000 
M159.940857,94.620132 
	C159.960678,86.483978 160.054749,78.346786 159.940369,70.212524 
	C159.916260,68.498154 159.127762,66.794540 158.293350,64.453644 
	C155.799500,47.339561 141.948914,35.056938 124.682205,34.912380 
	C109.354416,34.784058 94.021782,34.721474 78.696350,34.958092 
	C60.656326,35.236626 46.026745,50.387096 46.005260,68.497643 
	C45.974823,94.157127 46.753735,119.846840 45.732849,145.465698 
	C45.038002,162.902695 60.715195,182.146103 81.435760,181.373108 
	C103.232712,180.559952 125.083664,181.233963 146.910507,181.138611 
	C150.034332,181.124969 153.287674,180.880997 156.255310,179.990906 
	C171.763107,175.339600 181.065353,162.779572 181.176483,146.618164 
	C181.246368,136.454803 181.206772,126.290565 181.187302,116.126770 
	C181.168930,106.532227 178.401794,103.475136 168.784409,102.212868 
	C164.642944,101.669312 160.986893,100.380104 159.940857,94.620132 
z"/>
<path fill="#FFFCFB" opacity="1.000000" stroke="none" 
	d="
M18.530293,1.000000 
	C17.209631,1.752663 15.345192,2.367538 13.642297,3.282929 
	C7.712555,6.470462 3.469940,11.108671 1.335689,17.871262 
	C1.000000,12.405508 1.000000,6.811016 1.000000,1.000000 
	C6.685597,1.000000 12.373091,1.000000 18.530293,1.000000 
z"/>
<path fill="#FFFCFC" opacity="1.000000" stroke="none" 
	d="
M226.000000,18.530293 
	C222.903976,10.349562 217.771790,3.783632 208.137466,1.342998 
	C213.925735,1.000000 219.851456,1.000000 226.000000,1.000000 
	C226.000000,6.684937 226.000000,12.372760 226.000000,18.530293 
z"/>
<path fill="#FFF8F7" opacity="1.000000" stroke="none" 
	d="
M208.469711,226.000000 
	C217.290222,223.687286 222.806458,217.435104 225.999496,208.378632 
	C226.000000,213.925735 226.000000,219.851456 226.000000,226.000000 
	C220.315063,226.000000 214.627243,226.000000 208.469711,226.000000 
z"/>
<path fill="#FFFBFA" opacity="1.000000" stroke="none" 
	d="
M1.000000,209.470459 
	C4.176435,217.272339 9.263237,223.573975 18.657654,225.892548 
	C13.076678,226.000000 7.153358,226.000000 1.000000,226.000000 
	C1.000000,220.649139 1.000000,215.295029 1.000000,209.470459 
z"/>
<path fill="#FFFEFE" opacity="1.000000" stroke="none" 
	d="
M159.912247,95.648842 
	C160.986893,100.380104 164.642944,101.669312 168.784409,102.212868 
	C178.401794,103.475136 181.168930,106.532227 181.187302,116.126770 
	C181.206772,126.290565 181.246368,136.454803 181.176483,146.618164 
	C181.065353,162.779572 171.763107,175.339600 156.255310,179.990906 
	C153.287674,180.880997 150.034332,181.124969 146.910507,181.138611 
	C125.083664,181.233963 103.232712,180.559952 81.435760,181.373108 
	C60.715195,182.146103 45.038002,162.902695 45.732849,145.465698 
	C46.753735,119.846840 45.974823,94.157127 46.005260,68.497643 
	C46.026745,50.387096 60.656326,35.236626 78.696350,34.958092 
	C94.021782,34.721474 109.354416,34.784058 124.682205,34.912380 
	C141.948914,35.056938 155.799500,47.339561 158.455032,65.231049 
	C158.652985,73.162445 158.586075,80.319214 158.777969,87.469025 
	C158.851379,90.203812 159.516678,92.922707 159.912247,95.648842 
M87.333038,69.079086 
	C80.589241,71.952843 78.783432,75.271324 79.850410,82.829720 
	C80.501083,87.439003 84.602448,90.549118 91.045380,90.709770 
	C100.536896,90.946442 110.042595,91.091736 119.530571,90.838470 
	C126.753967,90.645668 128.962708,87.907181 130.817230,81.293488 
	C132.268204,76.119041 128.918671,71.533798 122.038231,68.994499 
	C110.710213,69.049278 99.382195,69.104050 87.333038,69.079086 
M139.666412,146.912872 
	C145.843292,143.994339 147.698959,140.910690 147.081802,134.590393 
	C146.605576,129.713379 143.366760,126.377632 137.034912,125.025223 
	C120.707581,125.068954 104.380249,125.112679 87.344650,125.126472 
	C82.165016,127.164299 79.220055,131.014542 79.315620,136.523514 
	C79.402878,141.552765 81.808846,145.372696 87.958817,147.014862 
	C104.955864,146.961761 121.952904,146.908676 139.666412,146.912872 
z"/>
<path fill="#FF4D08" opacity="1.000000" stroke="none" 
	d="
M159.926544,95.134491 
	C159.516678,92.922707 158.851379,90.203812 158.777969,87.469025 
	C158.586075,80.319214 158.652985,73.162445 158.654099,65.547211 
	C159.127762,66.794540 159.916260,68.498154 159.940369,70.212524 
	C160.054749,78.346786 159.960678,86.483978 159.926544,95.134491 
z"/>
<path fill="#FF5722" opacity="1.000000" stroke="none" 
	d="
M87.055336,146.775681 
	C81.808846,145.372696 79.402878,141.552765 79.315620,136.523514 
	C79.220055,131.014542 82.165016,127.164299 88.053162,125.343307 
	C104.703590,125.635551 120.645477,125.715965 136.587479,125.761047 
	C137.042328,125.762337 137.498230,125.388130 137.953644,125.189011 
	C143.366760,126.377632 146.605576,129.713379 147.081802,134.590393 
	C147.698959,140.910690 145.843292,143.994339 138.955185,146.679260 
	C121.639534,146.364044 105.035126,146.277817 88.430611,146.225250 
	C87.972771,146.223801 87.513786,146.584076 87.055336,146.775681 
z"/>
<path fill="#FF5824" opacity="1.000000" stroke="none" 
	d="
M122.945045,69.218391 
	C128.918671,71.533798 132.268204,76.119041 130.817230,81.293488 
	C128.962708,87.907181 126.753967,90.645668 119.530571,90.838470 
	C110.042595,91.091736 100.536896,90.946442 91.045380,90.709770 
	C84.602448,90.549118 80.501083,87.439003 79.850410,82.829720 
	C78.783432,75.271324 80.589241,71.952843 88.047226,69.322136 
	C94.223907,69.711334 99.688240,70.021118 105.148384,69.959457 
	C111.082634,69.892456 117.012993,69.480141 122.945045,69.218391 
z"/>
<path fill="#FF4A00" opacity="1.000000" stroke="none" 
	d="
M87.507080,146.895264 
	C87.513786,146.584076 87.972771,146.223801 88.430611,146.225250 
	C105.035126,146.277817 121.639534,146.364044 138.596954,146.650604 
	C121.952904,146.908676 104.955864,146.961761 87.507080,146.895264 
z"/>
<path fill="#FF4A00" opacity="1.000000" stroke="none" 
	d="
M137.494278,125.107117 
	C137.498230,125.388130 137.042328,125.762337 136.587479,125.761047 
	C120.645477,125.715965 104.703590,125.635551 88.407303,125.358276 
	C104.380249,125.112679 120.707581,125.068954 137.494278,125.107117 
z"/>
<path fill="#FF4A00" opacity="1.000000" stroke="none" 
	d="
M122.491638,69.106445 
	C117.012993,69.480141 111.082634,69.892456 105.148384,69.959457 
	C99.688240,70.021118 94.223907,69.711334 88.407799,69.362007 
	C99.382195,69.104050 110.710213,69.049278 122.491638,69.106445 
z"/>
</svg>