<?xml version="1.0" encoding="UTF-8"?>
<svg version="1.1" xmlns="http://www.w3.org/2000/svg" width="128" height="128">
<path d="M0 0 C0.85207031 0.32742187 1.70414062 0.65484375 2.58203125 0.9921875 C17.60387326 7.47405319 27.91384479 21.59062546 33.94140625 36.296875 C39.14363157 51.27526289 37.43812824 67.37547593 31.54296875 81.828125 C24.47751567 96.35255006 12.23737904 107.72057016 -2.875 113.375 C-18.50842248 118.74169727 -35.97162848 117.37681281 -50.875 110.71484375 C-65.5039656 103.42067896 -76.63512762 90.42920661 -82 75 C-85.53262161 62.52958586 -86.009163 47.08303475 -81 35 C-80.54753906 33.89527344 -80.09507813 32.79054687 -79.62890625 31.65234375 C-72.50892947 15.96107597 -61.13715035 5.81024093 -45.36328125 -1.17578125 C-31.01029172 -6.18153462 -13.99256037 -6.02817865 0 0 Z M-62.4453125 21.1328125 C-73.36341527 34.2455088 -76.06434748 48.34429717 -75 65 C-74.41773276 68.58529909 -73.44245814 71.67530989 -72 75 C-71.68289062 75.80308594 -71.36578125 76.60617188 -71.0390625 77.43359375 C-65.16286504 90.7904823 -53.88433369 100.0413142 -40.5625 105.4375 C-26.86457325 109.56295121 -11.63383107 108.14934137 0.88671875 101.45703125 C13.51162045 93.93031632 22.78649965 83.00870323 26.50390625 68.5546875 C29.32528554 54.02569493 27.44933316 40.18061817 19.43359375 27.52734375 C11.00604444 16.12766568 -0.07821359 8.20041067 -14 5 C-32.55200116 3.18125578 -49.34360741 7.02810606 -62.4453125 21.1328125 Z " fill="#000000" transform="translate(88,8)"/>
<path d="M0 0 C5.95190188 3.55745859 10.27299544 8.47338407 12.4765625 15.09375 C13.34679082 22.42997709 13.07447828 29.08830898 8.4765625 35.09375 C4.37114533 39.36109778 0.32762871 42.79178979 -5.6953125 43.4296875 C-19.12429711 43.57629214 -19.12429711 43.57629214 -24.5234375 39.09375 C-29.35670672 34.09792688 -32.46891485 28.83722059 -32.55078125 21.71484375 C-32.14733106 14.93894949 -30.690653 9.02470144 -25.5859375 4.30078125 C-18.21460299 -1.40387285 -9.05308471 -3.25126262 0 0 Z M-19.9609375 12.25390625 C-22.52554329 15.27372957 -23.47753213 18.14588843 -23.5234375 22.09375 C-21.9382646 27.93907508 -19.4039787 30.80685491 -14.5234375 34.09375 C-13.2034375 34.09375 -11.8834375 34.09375 -10.5234375 34.09375 C-10.5234375 25.51375 -10.5234375 16.93375 -10.5234375 8.09375 C-15.36139321 8.09375 -16.53692777 9.11769044 -19.9609375 12.25390625 Z " fill="#000000" transform="translate(73.5234375,42.90625)"/>
<path d="M0 0 C2.6640625 0.9140625 2.6640625 0.9140625 3.6640625 1.9140625 C4.08203125 4.08203125 4.08203125 4.08203125 3.6640625 6.9140625 C1.82628723 9.25011815 0.09411569 11.18348363 -2.0234375 13.2265625 C-2.81911133 14.05124023 -2.81911133 14.05124023 -3.63085938 14.89257812 C-6.04405251 17.27616153 -7.71520613 18.80637568 -11.10546875 19.39453125 C-13.3359375 18.9140625 -13.3359375 18.9140625 -15.3359375 16.9140625 C-15.8125 14.6875 -15.8125 14.6875 -15.3359375 11.9140625 C-13.52100061 9.54700889 -11.81739782 7.60568432 -9.7109375 5.5390625 C-9.18886719 4.98089844 -8.66679688 4.42273437 -8.12890625 3.84765625 C-5.34315156 1.06190156 -4.01528427 -0.10343824 0 0 Z " fill="#000000" transform="translate(95.3359375,29.0859375)"/>
<path d="M0 0 C3.88858721 0.63883933 5.87040591 2.89240349 8.484375 5.63671875 C8.97808594 6.11947266 9.47179687 6.60222656 9.98046875 7.09960938 C12.85894693 10.03723437 14.64989507 12.26042237 14.734375 16.44921875 C12.734375 19.44921875 12.734375 19.44921875 10.50390625 19.9921875 C6.42543546 19.19260014 4.20675674 16.64811501 1.421875 13.76171875 C0.87208984 13.23126953 0.32230469 12.70082031 -0.24414062 12.15429688 C-2.62772403 9.74110374 -4.15793818 8.06995012 -4.74609375 4.6796875 C-4.0782 1.57914011 -3.11167044 0.61696914 0 0 Z " fill="#000000" transform="translate(84.265625,79.55078125)"/>
<path d="M0 0 C2.23046875 0.48046875 2.23046875 0.48046875 4.23046875 2.48046875 C4.6796875 4.74609375 4.6796875 4.74609375 4.23046875 7.48046875 C2.551894 9.63233691 0.99600142 11.37019886 -0.95703125 13.23046875 C-1.43978516 13.72417969 -1.92253906 14.21789062 -2.41992188 14.7265625 C-5.35754687 17.60504068 -7.58073487 19.39598882 -11.76953125 19.48046875 C-14.76953125 17.48046875 -14.76953125 17.48046875 -15.3125 15.25 C-14.51291264 11.17152921 -11.96842751 8.95285049 -9.08203125 6.16796875 C-8.55158203 5.61818359 -8.02113281 5.06839844 -7.47460938 4.50195312 C-5.06141624 2.11836972 -3.39026262 0.58815557 0 0 Z " fill="#000000" transform="translate(43.76953125,79.51953125)"/>
<path d="M0 0 C4.07847079 0.79958736 6.29714951 3.34407249 9.08203125 6.23046875 C9.90670898 7.02614258 9.90670898 7.02614258 10.74804688 7.83789062 C13.13163028 10.25108376 14.66184443 11.92223738 15.25 15.3125 C14.76953125 17.54296875 14.76953125 17.54296875 12.76953125 19.54296875 C10.50390625 19.9921875 10.50390625 19.9921875 7.76953125 19.54296875 C5.61766309 17.864394 3.87980114 16.30850142 2.01953125 14.35546875 C1.52582031 13.87271484 1.03210937 13.38996094 0.5234375 12.89257812 C-2.35504068 9.95495313 -4.14598882 7.73176513 -4.23046875 3.54296875 C-2.23046875 0.54296875 -2.23046875 0.54296875 0 0 Z " fill="#000000" transform="translate(33.23046875,28.45703125)"/>
<path d="M0 0 C3.0625 -0.25 3.0625 -0.25 6 0 C7.58937556 1.58937556 7.12981143 3.23899846 7.1328125 5.4375 C7.13474609 6.77941406 7.13474609 6.77941406 7.13671875 8.1484375 C7.13285156 9.08945313 7.12898438 10.03046875 7.125 11 C7.12886719 11.94101563 7.13273437 12.88203125 7.13671875 13.8515625 C7.13542969 14.74617188 7.13414063 15.64078125 7.1328125 16.5625 C7.13168457 17.38878906 7.13055664 18.21507813 7.12939453 19.06640625 C7 21 7 21 6 22 C3.0625 22.25 3.0625 22.25 0 22 C-2.49111925 18.26332113 -2.29613477 15.32129024 -2.25 11 C-2.25773437 10.27554688 -2.26546875 9.55109375 -2.2734375 8.8046875 C-2.25942063 5.00611507 -2.15441944 3.23162916 0 0 Z " fill="#000000" transform="translate(61,89)"/>
<path d="M0 0 C0.89460938 -0.00128906 1.78921875 -0.00257812 2.7109375 -0.00390625 C3.65195313 -0.00003906 4.59296875 0.00382812 5.5625 0.0078125 C6.97402344 0.00201172 6.97402344 0.00201172 8.4140625 -0.00390625 C9.75597656 -0.00197266 9.75597656 -0.00197266 11.125 0 C11.95128906 0.00112793 12.77757813 0.00225586 13.62890625 0.00341797 C15.5625 0.1328125 15.5625 0.1328125 16.5625 1.1328125 C16.8125 4.0703125 16.8125 4.0703125 16.5625 7.1328125 C12.82582113 9.62393175 9.88379024 9.42894727 5.5625 9.3828125 C4.47582031 9.39441406 4.47582031 9.39441406 3.3671875 9.40625 C-0.43138493 9.39223313 -2.20587084 9.28723194 -5.4375 7.1328125 C-5.6875 4.0703125 -5.6875 4.0703125 -5.4375 1.1328125 C-3.84812444 -0.45656306 -2.19850154 0.00300107 0 0 Z " fill="#000000" transform="translate(94.4375,59.8671875)"/>
<path d="M0 0 C1.08667969 -0.01160156 1.08667969 -0.01160156 2.1953125 -0.0234375 C5.99388493 -0.00942063 7.76837084 0.09558056 11 2.25 C11.25 5.3125 11.25 5.3125 11 8.25 C9.41062444 9.83937556 7.76100154 9.37981143 5.5625 9.3828125 C4.22058594 9.38474609 4.22058594 9.38474609 2.8515625 9.38671875 C1.91054688 9.38285156 0.96953125 9.37898438 0 9.375 C-1.41152344 9.38080078 -1.41152344 9.38080078 -2.8515625 9.38671875 C-3.74617188 9.38542969 -4.64078125 9.38414063 -5.5625 9.3828125 C-6.38878906 9.38168457 -7.21507812 9.38055664 -8.06640625 9.37939453 C-10 9.25 -10 9.25 -11 8.25 C-11.25 5.3125 -11.25 5.3125 -11 2.25 C-7.26332113 -0.24111925 -4.32129024 -0.04613477 0 0 Z " fill="#000000" transform="translate(28,58.75)"/>
<path d="M0 0 C1.010625 0.0825 2.02125 0.165 3.0625 0.25 C5.55361925 3.98667887 5.35863477 6.92870976 5.3125 11.25 C5.32023437 11.97445313 5.32796875 12.69890625 5.3359375 13.4453125 C5.32192063 17.24388493 5.21691944 19.01837084 3.0625 22.25 C0 22.5 0 22.5 -2.9375 22.25 C-4.52687556 20.66062444 -4.06731143 19.01100154 -4.0703125 16.8125 C-4.07160156 15.91789062 -4.07289062 15.02328125 -4.07421875 14.1015625 C-4.06841797 12.69003906 -4.06841797 12.69003906 -4.0625 11.25 C-4.06636719 10.30898438 -4.07023437 9.36796875 -4.07421875 8.3984375 C-4.07292969 7.50382812 -4.07164063 6.60921875 -4.0703125 5.6875 C-4.06862061 4.44806641 -4.06862061 4.44806641 -4.06689453 3.18359375 C-3.85413358 0.00422256 -3.23486428 0.2753076 0 0 Z " fill="#000000" transform="translate(63.9375,16.75)"/>
</svg>
