<svg version="1.1" id="Layer_1" xmlns="http://www.w3.org/2000/svg" xmlns:xlink="http://www.w3.org/1999/xlink" x="0px" y="0px"
	 width="100%" viewBox="0 0 225 225" enable-background="new 0 0 225 225" xml:space="preserve">
<path fill="#FEFDFD" opacity="1.000000" stroke="none" 
	d="
M1.000000,60.000000 
	C1.000000,40.000000 1.000000,20.500002 1.000000,1.000003 
	C75.999992,1.000002 150.999985,1.000002 226.000000,1.000001 
	C226.000000,75.999992 226.000000,150.999985 226.000000,225.999969 
	C151.000015,225.999985 76.000031,225.999985 1.000022,226.000000 
	C1.000000,170.833328 1.000000,115.666664 1.000000,60.000000 
M214.447784,163.643845 
	C214.439194,162.794586 214.430603,161.945328 214.673721,160.178940 
	C214.692810,134.237381 214.733276,108.295799 214.714569,82.354263 
	C214.710373,76.547676 214.498764,70.741241 214.598602,64.489258 
	C214.638199,64.126961 214.514740,63.833149 214.318359,62.807922 
	C214.148743,61.205032 213.979111,59.602142 213.927841,57.371189 
	C213.616470,56.584667 213.305099,55.798141 213.002701,54.244156 
	C212.627335,52.970245 212.266937,51.691704 211.874344,50.423130 
	C206.072266,31.675528 186.910904,15.401216 168.232254,13.676001 
	C166.755066,13.453026 165.277847,13.035325 163.800705,13.035692 
	C130.868286,13.043863 97.935860,13.098113 64.167274,12.990111 
	C36.114231,14.865520 13.826473,36.789974 12.385792,64.082314 
	C12.402236,64.709152 12.418680,65.335999 12.278961,66.891983 
	C12.269520,97.135002 12.254872,127.378014 12.266315,157.621033 
	C12.266875,159.102402 12.495670,160.583694 12.363802,162.501144 
	C12.500577,162.795349 12.637351,163.089569 12.708663,164.207535 
	C14.899693,191.321106 38.638721,213.601929 65.877930,213.663757 
	C96.774910,213.684586 127.671883,213.712860 158.568863,213.703125 
	C160.038712,213.702652 161.508484,213.365646 163.856308,213.359467 
	C167.138718,212.883820 170.491989,212.690460 173.692139,211.887115 
	C195.966324,206.295532 213.625229,185.388428 214.447784,163.643845 
z"/>
<path fill="#F00A10" opacity="1.000000" stroke="none" 
	d="
M213.809494,57.999252 
	C213.979111,59.602142 214.148743,61.205032 214.187469,63.434555 
	C214.012573,64.409416 214.121262,64.700600 214.382645,64.934738 
	C214.498764,70.741241 214.710373,76.547676 214.714569,82.354263 
	C214.733276,108.295799 214.692810,134.237381 214.370407,160.908188 
	C214.083374,162.493942 214.099670,163.350464 214.115952,164.206970 
	C213.625229,185.388428 195.966324,206.295532 173.692139,211.887115 
	C170.491989,212.690460 167.138718,212.883820 163.504822,212.982391 
	C162.435898,212.073013 161.718475,211.540695 160.532364,211.005585 
	C130.275406,211.002075 100.487114,210.983490 70.698982,211.042542 
	C68.802231,211.046295 66.906685,211.652771 65.010811,212.198227 
	C65.031776,212.709991 65.030869,213.002319 65.008308,213.294571 
	C38.638721,213.601929 14.899693,191.321106 12.826384,163.570221 
	C12.985724,162.587158 12.877086,162.297852 12.618186,162.065018 
	C12.495670,160.583694 12.266875,159.102402 12.266315,157.621033 
	C12.254872,127.378014 12.269520,97.135002 12.553837,66.172157 
	C12.806678,64.820503 12.784643,64.188675 12.762609,63.556847 
	C13.826473,36.789974 36.114231,14.865520 64.584137,13.423853 
	C65.000671,14.571565 65.000336,15.285535 65.000336,16.333513 
	C65.001358,17.112902 65.002052,17.558283 65.001373,18.001854 
	C65.000008,18.000046 65.006096,18.003010 64.573799,18.002155 
	C61.917656,18.119610 59.693806,18.237919 56.514370,18.407064 
	C58.767239,19.772333 59.909615,20.464628 61.006683,21.330608 
	C60.961380,21.504292 60.836140,21.840727 60.424377,21.867619 
	C48.973248,23.231094 39.631638,27.807779 32.104416,36.548191 
	C30.507004,38.802441 29.185366,40.881947 27.555897,43.064995 
	C26.947237,43.723747 26.646408,44.278954 26.078644,44.987007 
	C25.115826,46.634335 24.419941,48.128822 23.514284,49.912170 
	C22.526859,52.116886 21.749207,54.032738 20.717777,55.718040 
	C20.050627,55.652344 19.273174,55.823837 19.276043,55.981091 
	C19.428421,64.329208 19.646681,72.676125 20.014652,81.120903 
	C20.171227,81.218643 20.484320,81.414200 20.474277,81.744881 
	C20.529902,82.732391 20.595568,83.389221 20.584511,84.394699 
	C20.397774,86.158180 20.287760,87.573021 20.118979,89.429131 
	C20.103924,92.239639 20.147636,94.608887 20.135084,97.392807 
	C20.101042,99.201347 20.123262,100.595207 20.099777,102.430931 
	C20.081892,105.240158 20.109713,107.607529 20.107758,110.233490 
	C20.080856,110.665596 20.083727,110.839104 20.072582,111.315430 
	C20.327646,112.138542 20.596725,112.658852 20.858320,113.540970 
	C20.851831,114.626488 20.852827,115.350197 20.714455,116.399696 
	C20.411642,118.142586 20.248199,119.559685 20.056215,121.377449 
	C20.031374,122.847603 20.035076,123.917099 20.022858,125.424370 
	C20.015837,127.903275 20.024734,129.944397 20.022009,132.423981 
	C20.008968,134.906174 20.007553,136.949905 20.003307,139.423492 
	C20.383030,141.832886 18.771877,144.777924 22.691027,145.006302 
	C26.161137,145.208511 32.200539,140.616180 33.001526,136.622589 
	C34.003666,133.832932 34.998455,131.414581 36.143501,128.700714 
	C37.847900,126.258217 39.402046,124.111237 41.101524,121.659088 
	C43.178658,118.577316 45.110451,115.800713 47.369942,112.975037 
	C49.118427,111.273659 50.539223,109.621346 52.217270,107.817429 
	C53.006199,106.818901 53.537880,105.971977 54.411606,105.086746 
	C55.824654,104.025116 56.895657,103.001785 58.240910,101.771423 
	C59.366203,100.681671 60.172050,99.749344 61.076561,98.925316 
	C64.052582,96.214073 67.064369,93.542099 70.379929,90.975327 
	C77.145210,97.696220 83.407791,104.494118 90.129295,110.803085 
	C92.928520,113.430496 91.857079,114.970039 89.674591,117.115013 
	C86.903725,119.821976 84.441238,122.393837 81.987808,124.980690 
	C81.996857,124.995674 81.965912,124.979668 81.655640,125.109528 
	C78.895988,127.819679 76.446617,130.399963 73.996353,132.987991 
	C73.995453,132.995728 73.979851,132.996964 73.665901,133.118851 
	C70.895866,135.817734 68.439781,138.394714 65.990784,140.984619 
	C65.997864,140.997559 65.972641,140.982529 65.622971,141.034882 
	C63.847855,143.053574 62.422421,145.019913 60.997658,146.991745 
	C60.998333,146.997253 60.989349,147.001190 60.821739,147.023682 
	C60.654129,147.046173 60.320419,147.101944 60.019646,147.001282 
	C57.819267,149.801025 55.064751,152.465469 54.186428,155.647766 
	C51.899273,163.934418 63.642673,172.843994 69.665428,172.888565 
	C74.021912,172.920792 78.114601,171.633224 79.722473,166.747574 
	C79.731102,166.759872 79.758575,166.751511 80.072601,166.816254 
	C80.921303,166.355026 81.455971,165.829056 82.278824,165.119904 
	C83.520203,163.675430 84.473404,162.414169 85.722931,161.024689 
	C94.965111,151.658020 103.910965,142.419540 112.948746,133.086151 
	C121.806824,141.935730 129.887527,150.008682 137.995392,158.429474 
	C139.670746,160.200790 141.318985,161.624268 142.983368,163.024170 
	C142.999496,163.000610 142.952545,163.033142 143.065643,163.351440 
	C145.126205,165.133347 147.073669,166.596924 149.161972,168.279388 
	C149.625122,168.593140 149.947433,168.688019 150.266418,168.801758 
	C150.263092,168.820618 150.275131,168.771439 150.241364,169.154297 
	C150.606094,170.005203 150.910980,170.681854 151.417511,170.909164 
	C156.746323,173.300644 162.814087,172.047623 167.334824,167.698654 
	C171.361511,163.824997 173.722031,155.279938 171.628998,150.832230 
	C171.046951,149.595383 169.220474,148.944168 167.837097,147.743713 
	C166.791290,146.677368 165.873260,145.891556 164.968826,145.065948 
	C164.982407,145.026154 164.905655,145.060516 164.816193,144.782379 
	C164.145660,144.015533 163.564606,143.526810 162.992310,143.018341 
	C163.001083,142.998581 162.961426,143.015915 162.847412,142.703461 
	C160.151871,139.937149 157.570312,137.483292 154.995224,135.013824 
	C155.001678,134.998199 154.970413,135.011032 154.854553,134.698242 
	C152.037918,131.772278 149.337128,129.159119 146.578873,126.507431 
	C146.521393,126.468903 146.442902,126.354919 146.268677,126.091736 
	C143.726181,123.562256 141.357941,121.295967 138.995758,119.013840 
	C139.001831,118.997993 138.970108,119.010170 138.856750,118.700890 
	C137.134232,116.593132 135.525085,114.794655 133.962479,112.980576 
	C134.009033,112.964981 133.975754,112.872589 134.218063,112.717880 
	C135.190796,111.695549 135.921219,110.827934 136.864807,109.674545 
	C138.279434,108.178123 139.473999,106.960526 140.683502,105.757942 
	C147.509888,98.970634 154.339874,92.186935 161.476425,85.270691 
	C163.402023,83.376465 165.019836,81.613541 166.920258,80.008186 
	C167.661804,80.810020 168.120697,81.454277 168.355743,81.784248 
	C172.398560,74.589928 176.736237,67.114883 168.070496,59.766510 
	C168.077484,59.548519 168.130585,59.115559 168.582794,59.093704 
	C171.676971,59.049335 174.324615,59.129192 176.959839,58.983967 
	C183.356293,58.631454 187.500214,55.643856 189.594650,49.969185 
	C191.750702,45.969383 191.640030,42.376244 189.053345,38.669388 
	C188.494339,37.862957 187.965836,37.350536 187.314362,36.499527 
	C184.818817,34.068268 182.446259,31.975597 180.000793,29.544447 
	C176.281601,27.502308 172.635315,25.798653 168.677826,24.041853 
	C167.933411,23.609795 167.500198,23.230879 167.190994,22.540958 
	C166.710297,21.489628 166.248459,20.416048 165.469543,20.082115 
	C164.081161,19.486914 162.501114,19.338787 161.000824,18.753052 
	C160.999649,18.335310 160.998901,18.168215 161.228928,17.732716 
	C162.840683,17.626886 164.236343,17.711573 165.599564,17.968489 
	C168.311234,18.479542 168.603210,17.132093 168.215637,14.899149 
	C168.706650,14.588608 168.896622,14.327851 169.004745,14.007464 
	C186.910904,15.401216 206.072266,31.675528 211.874344,50.423130 
	C212.266937,51.691704 212.627335,52.970245 212.945618,54.954174 
	C213.195526,56.442547 213.502502,57.220898 213.809494,57.999252 
M15.591312,160.411972 
	C15.727107,159.602982 15.981066,158.794067 15.981628,157.984985 
	C16.002317,128.219330 16.011314,98.453644 15.958038,68.688080 
	C15.955840,67.460495 15.339614,66.234016 14.412396,65.590790 
	C14.276426,66.399696 14.022142,67.208519 14.021578,68.017525 
	C14.000814,97.783386 13.991763,127.549286 14.045016,157.315063 
	C14.047213,158.542908 14.663690,159.769623 15.591312,160.411972 
M210.920685,62.725998 
	C210.799179,62.464134 210.677658,62.202267 210.556137,61.940399 
	C210.564728,62.641457 210.573318,63.342514 210.581940,64.043579 
	C210.695740,63.776508 210.809540,63.509438 210.920685,62.725998 
z"/>
<path fill="#EC0606" opacity="1.000000" stroke="none" 
	d="
M168.618500,13.841732 
	C168.896622,14.327851 168.706650,14.588608 167.805817,14.898235 
	C163.940567,15.004519 160.704361,15.000473 157.468140,15.000373 
	C130.255615,14.999531 103.042984,14.971978 75.830925,15.084424 
	C74.542633,15.089747 73.259476,16.339403 71.606384,17.007858 
	C70.502266,17.007219 69.765694,17.008287 68.792542,16.736916 
	C67.370644,16.309484 66.185318,16.154493 65.000000,15.999504 
	C65.000336,15.285535 65.000671,14.571565 65.002228,13.500612 
	C97.935860,13.098113 130.868286,13.043863 163.800705,13.035692 
	C165.277847,13.035325 166.755066,13.453026 168.618500,13.841732 
z"/>
<path fill="#F40302" opacity="1.000000" stroke="none" 
	d="
M161.001068,211.008362 
	C161.718475,211.540695 162.435898,212.073013 163.065796,212.895355 
	C161.508484,213.365646 160.038712,213.702652 158.568863,213.703125 
	C127.671883,213.712860 96.774910,213.684586 65.443115,213.479156 
	C65.030869,213.002319 65.031776,212.709991 65.478104,212.205673 
	C95.736588,211.995590 125.528046,212.015488 155.319351,211.956757 
	C157.213867,211.953033 159.107193,211.338669 161.001068,211.008362 
z"/>
<path fill="#EE2E2E" opacity="1.000000" stroke="none" 
	d="
M213.868668,57.685219 
	C213.502502,57.220898 213.195526,56.442547 212.941132,55.337906 
	C213.305099,55.798141 213.616470,56.584667 213.868668,57.685219 
z"/>
<path fill="#EE2E2E" opacity="1.000000" stroke="none" 
	d="
M214.281860,163.925415 
	C214.099670,163.350464 214.083374,162.493942 214.244553,161.366760 
	C214.430603,161.945328 214.439194,162.794586 214.281860,163.925415 
z"/>
<path fill="#F32F2E" opacity="1.000000" stroke="none" 
	d="
M12.574200,63.819580 
	C12.784643,64.188675 12.806678,64.820503 12.631918,65.707581 
	C12.418680,65.335999 12.402236,64.709152 12.574200,63.819580 
z"/>
<path fill="#F32F2E" opacity="1.000000" stroke="none" 
	d="
M12.490993,162.283081 
	C12.877086,162.297852 12.985724,162.587158 12.859115,163.158356 
	C12.637351,163.089569 12.500577,162.795349 12.490993,162.283081 
z"/>
<path fill="#EE2E2E" opacity="1.000000" stroke="none" 
	d="
M214.490631,64.711998 
	C214.121262,64.700600 214.012573,64.409416 214.142395,63.834503 
	C214.514740,63.833149 214.638199,64.126961 214.490631,64.711998 
z"/>
<path fill="#FEFDFD" opacity="1.000000" stroke="none" 
	d="
M89.982964,116.979912 
	C91.857079,114.970039 92.928520,113.430496 90.129295,110.803085 
	C83.407791,104.494118 77.145210,97.696220 70.353729,90.635803 
	C68.397354,88.989647 66.784698,87.803284 65.060036,86.317917 
	C63.683704,84.651192 62.419384,83.283463 61.024452,81.633774 
	C60.041340,80.248398 59.188839,79.144989 58.656048,77.798508 
	C59.730865,73.341522 60.485973,69.127609 61.518829,64.752869 
	C66.375427,59.300610 72.200150,57.975544 78.880257,59.219971 
	C78.922516,59.200821 78.840530,59.157364 78.922836,59.413311 
	C79.334007,59.760170 79.662872,59.851082 80.226906,59.994522 
	C80.462082,60.047047 80.927849,60.170853 81.073853,60.457565 
	C82.105499,61.265785 82.991158,61.787296 84.002197,62.593025 
	C85.649117,64.273865 87.170654,65.670486 88.848747,67.378723 
	C91.600746,70.516983 94.196182,73.343628 96.910553,76.450989 
	C97.685318,77.491043 98.341164,78.250381 98.956604,79.352066 
	C98.268867,81.091583 97.621544,82.488739 96.952621,83.932503 
	C98.678352,83.932503 99.973465,83.932503 101.268578,83.932503 
	C101.268578,85.540474 101.268578,87.148445 101.268578,89.362007 
	C102.914558,88.190788 104.446075,87.101021 106.219040,86.094971 
	C106.640297,86.459023 106.820114,86.739365 106.964615,87.335388 
	C106.455132,88.663132 105.980965,89.675186 105.665421,90.348686 
	C108.498749,92.070526 111.159019,93.687202 114.688286,95.831970 
	C116.963394,92.450813 119.471497,88.723412 121.987671,84.996048 
	C121.995743,84.996078 121.996185,84.980049 122.359665,84.988663 
	C126.167923,83.255394 129.743210,81.631386 129.981201,76.987396 
	C129.997040,76.995964 129.977753,76.965378 130.350479,76.974213 
	C132.807220,74.015656 138.338776,74.171928 137.984451,68.990250 
	C137.997559,68.997116 137.982651,68.971375 138.345795,68.980873 
	C140.500031,67.327728 142.291122,65.665085 144.306961,63.830536 
	C144.726074,62.939026 144.920441,62.219425 145.104095,61.386871 
	C145.093384,61.273918 145.016403,61.060444 145.343643,61.102455 
	C146.102539,61.060963 146.534195,60.977455 147.104736,61.197723 
	C150.951569,64.358444 151.997208,60.321514 154.422668,58.842987 
	C156.877838,59.505901 158.953751,60.201370 161.047699,60.981125 
	C161.065704,61.065407 160.933853,61.176426 160.996475,61.474483 
	C161.524048,61.928917 161.988983,62.085293 162.543610,62.307007 
	C162.633270,62.372345 162.776505,62.541813 162.582809,62.875229 
	C164.999512,66.691360 164.093765,70.042740 162.774246,73.872375 
	C161.533798,77.472588 161.649567,81.540092 161.168625,85.401993 
	C154.339874,92.186935 147.509888,98.970634 140.683502,105.757942 
	C139.473999,106.960526 138.279434,108.178123 136.556976,109.630554 
	C135.203201,109.686790 134.370407,109.501244 133.206329,109.241890 
	C133.532761,110.782227 133.754257,111.827408 133.975754,112.872589 
	C133.975754,112.872589 134.009033,112.964981 133.683289,113.010620 
	C133.007584,115.520409 132.657608,117.984558 132.234116,120.966469 
	C134.776993,120.227951 136.873550,119.619064 138.970108,119.010170 
	C138.970108,119.010170 139.001831,118.997993 138.963409,119.328270 
	C138.449493,120.660835 137.973984,121.663124 137.379181,122.916885 
	C140.498108,124.099953 143.470505,125.227432 146.442902,126.354919 
	C146.442902,126.354919 146.521393,126.468903 146.402252,126.876221 
	C145.870163,128.839844 145.457214,130.396133 144.927750,132.391571 
	C146.369827,131.922623 147.352951,131.602905 148.939590,131.086945 
	C148.939590,133.301285 148.939590,135.102127 148.939590,136.898743 
	C151.056610,136.236099 153.013504,135.623566 154.970413,135.011032 
	C154.970413,135.011032 155.001678,134.998199 154.963287,135.328308 
	C154.449707,136.661209 153.974518,137.664017 153.435181,138.802216 
	C156.697922,140.245407 159.829681,141.630661 162.961426,143.015915 
	C162.961426,143.015915 163.001083,142.998581 162.941132,143.339355 
	C162.737885,146.583374 162.594589,149.486603 162.451309,152.389832 
	C162.776566,152.396805 163.101822,152.403778 163.427078,152.410751 
	C163.919937,149.960663 164.412796,147.510590 164.905655,145.060516 
	C164.905655,145.060516 164.982407,145.026154 165.004852,145.405548 
	C165.002945,148.930115 164.857010,152.081238 165.010239,155.217743 
	C165.077423,156.592972 165.755066,157.938385 166.142899,159.566605 
	C165.852127,160.267517 165.573959,160.699158 164.923157,161.097382 
	C161.589127,160.990845 160.023117,162.051544 160.974640,165.507935 
	C160.300308,165.861496 159.776169,165.987045 158.865219,166.069839 
	C156.280090,165.845963 154.081757,165.664841 151.546783,165.455978 
	C152.798538,162.332794 151.467804,161.866486 148.491257,162.697769 
	C146.749634,163.184174 144.805557,162.945587 142.952545,163.033142 
	C142.952545,163.033142 142.999496,163.000610 142.971176,162.689087 
	C142.110352,159.989441 143.689636,154.808502 137.968246,158.081635 
	C129.887527,150.008682 121.806824,141.935730 112.948746,133.086151 
	C103.910965,142.419540 94.965111,151.658020 85.311081,160.987488 
	C82.244995,161.325180 79.887085,161.571854 77.480759,161.823593 
	C75.872200,166.545486 73.855789,167.558945 71.312668,164.972748 
	C72.194397,164.502258 72.764069,164.059647 73.333733,163.617035 
	C73.042892,163.373642 72.752045,163.130249 72.461205,162.886856 
	C71.973930,163.591034 71.486664,164.295212 70.626068,165.006516 
	C69.455467,165.468262 68.658188,165.922882 67.614853,166.299133 
	C67.243027,166.103180 67.117249,165.985626 66.846313,165.664871 
	C66.434250,165.218277 66.123322,165.130203 65.834846,165.196136 
	C65.901329,165.194809 65.794327,165.273773 65.748077,164.954422 
	C64.860046,164.066940 64.018257,163.498810 63.115448,162.936707 
	C63.054420,162.942734 63.066288,162.820648 63.033691,162.508423 
	C63.188679,159.307632 65.072083,156.097275 61.107639,154.017807 
	C60.589294,153.745926 60.955204,151.751831 60.946430,150.555161 
	C60.937752,149.370667 60.973236,148.185867 60.989349,147.001190 
	C60.989349,147.001190 60.998333,146.997253 61.348980,146.961502 
	C63.123966,144.944672 64.548302,142.963608 65.972641,140.982529 
	C65.972641,140.982529 65.997864,140.997559 66.356400,140.993988 
	C69.629662,138.774078 73.872871,137.765137 73.979851,132.996964 
	C73.979851,132.996964 73.995453,132.995728 74.359741,132.996521 
	C78.170059,131.256973 81.746414,129.634354 81.965912,124.979668 
	C81.965912,124.979668 81.996857,124.995674 82.360519,124.989532 
	C84.824890,122.026344 90.335403,122.161842 89.982964,116.979912 
M65.769157,161.468674 
	C66.154816,161.593704 66.535866,161.739700 66.929962,161.826279 
	C67.009819,161.843826 67.138985,161.636871 67.245422,161.533401 
	C66.859772,161.408630 66.474121,161.283859 65.769157,161.468674 
z"/>
<path fill="#F55C5F" opacity="1.000000" stroke="none" 
	d="
M96.791626,76.170265 
	C94.196182,73.343628 91.600746,70.516983 89.264832,67.360931 
	C91.346939,66.685051 93.169510,66.338593 95.283836,65.897827 
	C96.906105,66.099724 98.410698,66.952812 99.538452,66.600311 
	C106.074799,64.557243 112.522385,62.230202 119.364845,59.961666 
	C131.455536,56.237568 143.196533,52.598003 154.893524,48.822128 
	C157.053085,48.125004 158.991302,46.770546 161.107635,45.905220 
	C165.273666,44.201801 169.411041,41.611141 173.711456,41.264824 
	C178.837448,40.852013 183.539597,40.486401 187.437347,36.838112 
	C187.965836,37.350536 188.494339,37.862957 188.765137,38.899994 
	C187.076996,41.212208 185.985611,43.960190 184.152512,44.607357 
	C178.649963,46.550014 172.757706,47.377342 167.226257,49.254898 
	C164.879623,50.051422 163.053040,52.380119 160.550247,54.010521 
	C153.570129,53.129448 148.598785,55.608448 145.016403,61.060444 
	C145.016403,61.060444 145.093384,61.273918 144.883560,61.325939 
	C144.292068,61.598473 143.910416,61.818985 143.062454,61.987286 
	C136.441605,62.996758 130.052597,63.347748 124.186226,65.283005 
	C114.871216,68.355927 105.905251,72.486885 96.791626,76.170265 
z"/>
<path fill="#F99D9F" opacity="1.000000" stroke="none" 
	d="
M20.971556,55.948589 
	C21.749207,54.032738 22.526859,52.116886 23.757406,50.237408 
	C24.981302,50.487141 25.968304,51.119202 26.490314,50.849907 
	C32.551437,47.723114 39.714958,49.370975 45.913021,45.485695 
	C50.523727,42.595459 56.913574,42.696060 62.296009,40.840816 
	C67.543777,39.031994 72.419113,36.153309 77.650085,34.281166 
	C80.824272,33.145145 84.612137,33.618782 87.683769,32.324104 
	C93.295090,29.958963 98.579460,26.818136 104.460815,24.000908 
	C108.614494,24.000925 112.307549,24.000883 115.960663,24.356232 
	C114.484917,26.005732 113.261009,27.888918 111.577538,28.494440 
	C103.208092,31.504812 94.696419,34.116837 86.280197,37.001514 
	C82.911118,38.156277 79.726707,40.510815 76.336044,40.780014 
	C71.743980,41.144596 67.677567,41.829731 63.689312,44.395370 
	C60.458244,46.473907 56.620625,47.727406 52.916618,48.929634 
	C43.766823,51.899437 34.526619,54.590393 25.369652,57.539066 
	C24.715992,57.749554 24.443325,59.143192 23.736198,60.189453 
	C22.660891,61.252083 21.842890,62.111954 20.856174,62.955681 
	C20.687460,62.939537 20.348513,62.935444 20.324387,62.596985 
	C20.396925,61.818134 20.493591,61.377750 20.706366,60.799469 
	C20.950647,60.446312 21.004114,60.213837 20.988937,59.562675 
	C20.987185,58.090332 20.979370,57.019459 20.971556,55.948589 
z"/>
<path fill="#F7797C" opacity="1.000000" stroke="none" 
	d="
M83.876808,62.308807 
	C82.991158,61.787296 82.105499,61.265785 81.099136,60.067226 
	C81.590340,58.298214 81.942940,56.606689 82.856277,56.211674 
	C88.746796,53.664036 94.682190,51.171417 100.754318,49.106030 
	C106.941940,47.001350 113.389008,45.657616 119.571281,43.539410 
	C132.444427,39.128750 145.263489,34.548668 158.004333,29.770407 
	C161.836411,28.333246 165.336746,26.011509 168.989044,24.094997 
	C172.635315,25.798653 176.281601,27.502308 179.965118,29.815804 
	C179.989487,30.607306 179.976608,30.788969 179.539566,30.981060 
	C177.410263,30.994444 175.705139,30.997400 173.686569,30.867147 
	C169.393707,31.623049 165.303757,32.181156 161.456482,33.465996 
	C151.605072,36.755966 141.884445,40.435169 132.067490,43.831474 
	C124.732506,46.369106 117.358185,48.802547 109.947266,51.108437 
	C103.154526,53.221977 96.268776,55.035511 89.466446,57.119781 
	C86.856857,57.919373 83.748505,58.444176 83.876808,62.308807 
z"/>
<path fill="#F78082" opacity="1.000000" stroke="none" 
	d="
M168.677826,24.041855 
	C165.336746,26.011509 161.836411,28.333246 158.004333,29.770407 
	C145.263489,34.548668 132.444427,39.128750 119.571281,43.539410 
	C113.389008,45.657616 106.941940,47.001350 100.754318,49.106030 
	C94.682190,51.171417 88.746796,53.664036 82.856277,56.211674 
	C81.942940,56.606689 81.590340,58.298214 80.953140,59.780518 
	C80.927849,60.170853 80.462082,60.047047 80.099281,59.782494 
	C79.495071,59.255627 79.196419,59.135433 78.840530,59.157364 
	C78.840530,59.157364 78.922516,59.200821 78.814545,58.879684 
	C77.800056,57.040962 76.893539,55.523373 76.366447,53.961304 
	C79.830925,52.278492 82.915977,50.640163 86.375687,49.001320 
	C87.499641,48.999939 88.248940,48.999069 89.436966,48.999012 
	C96.755653,48.842243 103.235008,47.826866 107.401009,41.001564 
	C108.866776,41.000153 109.932785,40.999161 111.427628,40.999069 
	C118.870178,41.756165 123.671158,36.572716 129.573547,34.346626 
	C129.846191,34.243805 129.863678,33.464428 130.249695,32.999706 
	C130.499390,32.999260 130.998779,32.998932 131.458099,32.999958 
	C135.243332,32.949924 139.161652,34.015663 141.778397,32.627655 
	C148.289932,29.173677 154.395569,25.087343 162.057465,24.574034 
	C162.426178,24.549330 162.706848,23.210470 163.434265,22.429825 
	C164.915665,22.534697 165.991318,22.693329 167.066986,22.851963 
	C167.500198,23.230879 167.933411,23.609795 168.677826,24.041855 
z"/>
<path fill="#F9A6A9" opacity="1.000000" stroke="none" 
	d="
M104.000206,24.000847 
	C98.579460,26.818136 93.295090,29.958963 87.683769,32.324104 
	C84.612137,33.618782 80.824272,33.145145 77.650085,34.281166 
	C72.419113,36.153309 67.543777,39.031994 62.296009,40.840816 
	C56.913574,42.696060 50.523727,42.595459 45.913021,45.485695 
	C39.714958,49.370975 32.551437,47.723114 26.490314,50.849907 
	C25.968304,51.119202 24.981302,50.487141 23.967178,49.948547 
	C24.419941,48.128822 25.115826,46.634335 26.458069,45.018539 
	C28.065506,44.262455 29.026581,43.627678 30.098953,42.775402 
	C30.412811,42.287285 30.675671,42.102367 31.048859,42.316437 
	C34.399311,42.087498 37.699730,41.545273 41.010769,41.385757 
	C43.187241,44.773804 45.046101,44.569191 48.328724,40.854527 
	C54.104965,38.805832 59.552483,36.902916 65.237244,35.272346 
	C67.649139,34.695049 69.823792,33.845402 72.040024,32.638336 
	C74.190819,30.962336 76.395020,29.770758 78.380035,28.286129 
	C80.053024,27.034861 81.471405,25.443169 83.430878,24.002176 
	C85.573349,24.003248 87.287437,24.004313 89.013123,24.396671 
	C90.336700,25.473751 92.516075,27.004276 92.811958,26.700472 
	C94.160751,25.315529 94.980286,23.415121 96.407997,21.611631 
	C98.525772,21.592243 100.225639,21.661243 102.065018,22.015324 
	C102.803085,22.867218 103.401649,23.434034 104.000206,24.000847 
z"/>
<path fill="#F6666A" opacity="1.000000" stroke="none" 
	d="
M179.963730,30.970634 
	C179.976608,30.788969 179.989487,30.607306 180.038025,30.154285 
	C182.446259,31.975597 184.818817,34.068268 187.314362,36.499519 
	C183.539597,40.486401 178.837448,40.852013 173.711456,41.264824 
	C169.411041,41.611141 165.273666,44.201801 161.107635,45.905220 
	C158.991302,46.770546 157.053085,48.125004 154.893524,48.822128 
	C143.196533,52.598003 131.455536,56.237568 119.362968,59.623329 
	C118.662720,58.547348 118.329193,57.772137 118.054718,56.646744 
	C118.570885,55.873718 118.956032,55.263069 119.495888,55.056225 
	C127.400665,52.027550 135.292786,48.960037 143.258469,46.098156 
	C148.446442,44.234238 153.748566,42.688061 159.446106,40.999989 
	C167.429901,41.885811 172.965439,36.550388 179.594513,34.593594 
	C181.654770,33.985435 181.752380,32.381454 179.963730,30.970634 
z"/>
<path fill="#FAB6B7" opacity="1.000000" stroke="none" 
	d="
M89.001526,24.005375 
	C87.287437,24.004313 85.573349,24.003248 82.979813,24.000755 
	C77.577644,23.514118 73.787468,25.164400 69.642387,26.984758 
	C61.527161,30.548649 52.937408,33.106838 44.407036,35.615292 
	C40.782448,36.681145 36.812988,36.574207 32.852974,36.835907 
	C32.705692,36.671555 32.380188,36.373451 32.380188,36.373451 
	C39.631638,27.807779 48.973248,23.231094 60.785557,21.945438 
	C62.723175,21.787756 63.887856,21.579147 65.515610,21.333038 
	C73.695480,21.426754 81.412277,21.557972 89.091049,22.074306 
	C89.035858,22.974741 89.018692,23.490059 89.001526,24.005375 
z"/>
<path fill="#F34E52" opacity="1.000000" stroke="none" 
	d="
M65.172043,86.616928 
	C66.784698,87.803284 68.397354,88.989647 70.036217,90.515518 
	C67.064369,93.542099 64.052582,96.214073 61.076561,98.925316 
	C60.172050,99.749344 59.366203,100.681671 57.915001,101.771942 
	C56.879707,101.981430 56.444572,101.983368 55.961353,101.617317 
	C54.659008,98.086014 52.536461,99.072258 50.209621,99.862755 
	C44.843052,101.685959 39.391098,103.256065 34.000355,105.010498 
	C30.371193,106.191628 26.784204,107.503136 23.185385,108.776215 
	C22.156805,109.140068 21.152803,109.573410 20.137531,109.974899 
	C20.109713,107.607529 20.081892,105.240158 20.396786,102.485550 
	C21.425928,102.700531 22.112360,103.302765 22.628260,103.755386 
	C22.988752,103.192429 23.328537,101.939507 23.995333,101.730652 
	C31.891670,99.257439 39.848309,96.977623 47.761337,94.556252 
	C49.816799,93.927292 51.970963,93.272614 53.717525,92.093254 
	C55.100719,91.159264 55.929756,89.404587 57.253220,88.009827 
	C57.501572,88.005310 57.998421,87.996010 58.356323,88.032822 
	C60.866833,87.585388 63.019440,87.101158 65.172043,86.616928 
z"/>
<path fill="#F40814" opacity="1.000000" stroke="none" 
	d="
M71.973930,17.009567 
	C73.259476,16.339403 74.542633,15.089747 75.830925,15.084424 
	C103.042984,14.971978 130.255615,14.999531 157.468140,15.000373 
	C160.704361,15.000473 163.940567,15.004519 167.586609,15.007650 
	C168.603210,17.132093 168.311234,18.479542 165.599564,17.968489 
	C164.236343,17.711573 162.840683,17.626886 160.760483,17.732090 
	C132.594910,18.000378 105.128479,18.020481 77.662247,17.958748 
	C75.765434,17.954485 73.870003,17.340179 71.973930,17.009567 
z"/>
<path fill="#F30409" opacity="1.000000" stroke="none" 
	d="
M89.129074,21.689190 
	C81.412277,21.557972 73.695480,21.426754 65.130997,21.208584 
	C63.206200,21.133396 62.129093,21.145159 61.051991,21.156921 
	C59.909615,20.464628 58.767239,19.772333 56.514370,18.407064 
	C59.693806,18.237919 61.917656,18.119610 64.866905,18.298977 
	C67.403275,18.730959 69.214134,18.980799 71.025215,18.982344 
	C101.017197,19.007923 131.009216,19.002323 161.001221,19.003696 
	C162.501114,19.338787 164.081161,19.486914 165.469543,20.082115 
	C166.248459,20.416048 166.710297,21.489628 167.190994,22.540958 
	C165.991318,22.693329 164.915665,22.534697 163.095428,22.325777 
	C159.218536,22.041187 156.086182,21.806885 152.506226,21.452881 
	C147.025208,21.410084 141.991821,21.486988 136.528290,21.444635 
	C133.727646,21.416018 131.357162,21.506659 128.545441,21.473568 
	C125.052307,21.450439 122.000412,21.551039 118.506134,21.519222 
	C112.684334,21.501286 107.304924,21.615767 101.925507,21.730246 
	C100.225639,21.661243 98.525772,21.592243 95.984573,21.526972 
	C93.138527,21.583530 91.133797,21.636360 89.129074,21.689190 
z"/>
<path fill="#F44449" opacity="1.000000" stroke="none" 
	d="
M20.107758,110.233490 
	C21.152803,109.573410 22.156805,109.140068 23.185385,108.776215 
	C26.784204,107.503136 30.371193,106.191628 34.000355,105.010498 
	C39.391098,103.256065 44.843052,101.685959 50.209621,99.862755 
	C52.536461,99.072258 54.659008,98.086014 55.666313,101.766838 
	C54.969425,103.231255 54.519493,104.178154 54.069561,105.125053 
	C53.537880,105.971977 53.006199,106.818901 51.896149,107.676994 
	C48.896358,107.616203 46.334301,107.006599 44.085567,107.594826 
	C40.462734,108.542480 37.075233,110.357872 33.535625,111.663895 
	C29.337500,113.212875 25.083567,114.610619 20.853823,116.073906 
	C20.852827,115.350197 20.851831,114.626488 20.887703,113.228653 
	C20.645243,112.040550 20.365919,111.526581 20.086594,111.012611 
	C20.083727,110.839104 20.080856,110.665596 20.107758,110.233490 
z"/>
<path fill="#F56B6E" opacity="1.000000" stroke="none" 
	d="
M20.177744,88.987862 
	C20.287760,87.573021 20.397774,86.158180 21.059904,84.381317 
	C27.671476,82.707733 33.789391,81.615181 39.772629,80.018074 
	C44.925339,78.642677 49.924530,76.692131 55.167313,75.255486 
	C55.898098,76.329918 56.453175,77.144737 56.989956,78.372604 
	C56.262871,79.512344 55.447369,80.948914 54.861076,80.860786 
	C43.421494,79.141075 35.360867,89.712502 24.272205,89.275223 
	C23.694818,89.252457 23.046347,91.032272 22.649851,91.638306 
	C21.775881,90.701286 20.976812,89.844574 20.177744,88.987862 
z"/>
<path fill="#D01E14" opacity="1.000000" stroke="none" 
	d="
M66.991478,165.868073 
	C67.117249,165.985626 67.243027,166.103180 67.835129,166.530212 
	C72.105583,166.804871 75.909721,166.770081 79.713852,166.735275 
	C78.114601,171.633224 74.021912,172.920792 69.665428,172.888565 
	C63.642673,172.843994 51.899273,163.934418 54.186428,155.647766 
	C55.064751,152.465469 57.819267,149.801025 59.937805,147.405792 
	C58.060799,153.479141 58.415131,158.569153 63.066288,162.820648 
	C63.066288,162.820648 63.054420,162.942734 63.227081,163.221344 
	C64.197937,164.091248 64.996132,164.682510 65.794327,165.273773 
	C65.794327,165.273773 65.901329,165.194809 65.955070,165.424500 
	C66.336365,165.725479 66.663925,165.796783 66.991478,165.868073 
z"/>
<path fill="#F4565A" opacity="1.000000" stroke="none" 
	d="
M57.004868,88.014343 
	C55.929756,89.404587 55.100719,91.159264 53.717525,92.093254 
	C51.970963,93.272614 49.816799,93.927292 47.761337,94.556252 
	C39.848309,96.977623 31.891670,99.257439 23.995333,101.730652 
	C23.328537,101.939507 22.988752,103.192429 22.628260,103.755386 
	C22.112360,103.302765 21.425928,102.700531 20.442490,102.043686 
	C20.123262,100.595207 20.101042,99.201347 20.404726,97.437408 
	C21.488123,97.045792 22.245617,97.024269 23.433689,97.002190 
	C30.757822,94.914299 37.620304,92.715500 44.556717,90.781906 
	C48.645531,89.642105 52.851555,88.922775 57.004868,88.014343 
z"/>
<path fill="#F66265" opacity="1.000000" stroke="none" 
	d="
M23.003109,97.002747 
	C22.245617,97.024269 21.488123,97.045792 20.460989,97.022720 
	C20.147636,94.608887 20.103924,92.239639 20.118979,89.429131 
	C20.976812,89.844574 21.775881,90.701286 22.649851,91.638306 
	C23.046347,91.032272 23.694818,89.252457 24.272205,89.275223 
	C35.360867,89.712502 43.421494,79.141075 54.861076,80.860786 
	C55.447369,80.948914 56.262871,79.512344 57.321724,78.396835 
	C57.893303,78.019203 58.114819,78.030388 58.336338,78.041580 
	C59.188839,79.144989 60.041340,80.248398 60.780380,81.755005 
	C60.443542,82.438286 60.220173,82.718384 59.567329,82.999031 
	C55.435192,84.122345 51.723854,85.217476 48.032787,86.377159 
	C45.393253,87.206459 42.786041,88.138023 40.155376,88.996284 
	C34.726357,90.767540 29.269115,92.458122 23.892900,94.376450 
	C23.352711,94.569199 23.288315,96.095390 23.003109,97.002747 
z"/>
<path fill="#F77276" opacity="1.000000" stroke="none" 
	d="
M54.991600,74.995880 
	C49.924530,76.692131 44.925339,78.642677 39.772629,80.018074 
	C33.789391,81.615181 27.671476,82.707733 21.136627,84.032669 
	C20.595568,83.389221 20.529902,82.732391 20.611765,81.645966 
	C20.759295,81.216362 21.006172,80.997559 21.391495,80.988113 
	C25.220905,79.601913 28.606806,78.049568 32.121227,76.885094 
	C39.379143,74.480240 46.705555,72.282104 54.008781,70.367889 
	C54.339710,72.156509 54.665653,73.576195 54.991600,74.995880 
z"/>
<path fill="#F43A3F" opacity="1.000000" stroke="none" 
	d="
M20.714455,116.399696 
	C25.083567,114.610619 29.337500,113.212875 33.535625,111.663895 
	C37.075233,110.357872 40.462734,108.542480 44.085567,107.594826 
	C46.334301,107.006599 48.896358,107.616203 51.638901,107.828598 
	C50.539223,109.621346 49.118427,111.273659 46.961090,112.972855 
	C41.801701,114.234802 37.350521,115.356720 32.964031,116.691284 
	C28.636868,118.007790 24.375174,119.539490 20.084757,120.976784 
	C20.248199,119.559685 20.411642,118.142586 20.714455,116.399696 
z"/>
<path fill="#F23136" opacity="1.000000" stroke="none" 
	d="
M20.056215,121.377449 
	C24.375174,119.539490 28.636868,118.007790 32.964031,116.691284 
	C37.350521,115.356720 41.801701,114.234802 46.633396,113.021927 
	C45.110451,115.800713 43.178658,118.577316 40.792389,121.532890 
	C39.319649,121.882446 38.221607,121.864037 37.296219,122.254646 
	C31.758659,124.592110 26.169237,126.451904 20.038776,124.986588 
	C20.035076,123.917099 20.031374,122.847603 20.056215,121.377449 
z"/>
<path fill="#F55459" opacity="1.000000" stroke="none" 
	d="
M160.990097,54.012463 
	C163.053040,52.380119 164.879623,50.051422 167.226257,49.254898 
	C172.757706,47.377342 178.649963,46.550014 184.152512,44.607357 
	C185.985611,43.960190 187.076996,41.212208 188.795670,39.194004 
	C191.640030,42.376244 191.750702,45.969383 189.263916,49.806610 
	C179.963409,47.752300 173.275558,53.034439 165.621246,55.974155 
	C163.847260,55.297283 162.418671,54.654873 160.990097,54.012463 
z"/>
<path fill="#CD1F12" opacity="1.000000" stroke="none" 
	d="
M159.252029,166.112595 
	C159.776169,165.987045 160.300308,165.861496 161.295410,165.406921 
	C162.942856,163.762192 164.119339,162.446487 165.295807,161.130798 
	C165.573959,160.699158 165.852127,160.267517 166.460037,159.466736 
	C167.181503,155.406479 167.573212,151.715378 167.964905,148.024261 
	C169.220474,148.944168 171.046951,149.595383 171.628998,150.832230 
	C173.722031,155.279938 171.361511,163.824997 167.334824,167.698654 
	C162.814087,172.047623 156.746323,173.300644 151.417511,170.909164 
	C150.910980,170.681854 150.606094,170.005203 150.615219,169.149780 
	C153.765900,167.879166 156.508957,166.995880 159.252029,166.112595 
z"/>
<path fill="#F44A4F" opacity="1.000000" stroke="none" 
	d="
M165.966675,56.008614 
	C173.275558,53.034439 179.963409,47.752300 188.982452,50.066902 
	C187.500214,55.643856 183.356293,58.631454 176.959839,58.983967 
	C174.324615,59.129192 171.676971,59.049335 168.530029,59.049110 
	C168.025085,59.026367 167.920013,58.941158 167.898987,58.635197 
	C167.240845,57.555695 166.603760,56.782158 165.966675,56.008614 
z"/>
<path fill="#F2272C" opacity="1.000000" stroke="none" 
	d="
M20.022858,125.424370 
	C26.169237,126.451904 31.758659,124.592110 37.296219,122.254646 
	C38.221607,121.864037 39.319649,121.882446 40.647049,121.838058 
	C39.402046,124.111237 37.847900,126.258217 35.749466,128.701843 
	C33.849037,129.422134 32.519238,129.993729 31.131651,130.240814 
	C27.445627,130.897156 23.734671,131.413483 20.033630,131.985504 
	C20.024734,129.944397 20.015837,127.903275 20.022858,125.424370 
z"/>
<path fill="#D01F16" opacity="1.000000" stroke="none" 
	d="
M168.063522,59.984501 
	C176.736237,67.114883 172.398560,74.589928 168.355743,81.784248 
	C168.120697,81.454277 167.661804,80.810020 167.028473,79.644951 
	C169.544601,72.000427 168.541824,67.922386 162.776505,62.541813 
	C162.776505,62.541813 162.633270,62.372345 162.393280,62.117645 
	C161.746811,61.634102 161.340332,61.405262 160.933853,61.176426 
	C160.933853,61.176426 161.065704,61.065407 161.104034,60.653236 
	C163.090805,60.128201 165.039261,60.015339 167.255676,59.935768 
	C167.703613,59.974205 167.883575,59.979355 168.063522,59.984501 
z"/>
<path fill="#E4110C" opacity="1.000000" stroke="none" 
	d="
M161.000824,18.753052 
	C131.009216,19.002323 101.017197,19.007923 71.025215,18.982344 
	C69.214134,18.980799 67.403275,18.730959 65.299202,18.299831 
	C65.006096,18.003010 65.000008,18.000046 65.368057,18.001736 
	C66.833786,17.672068 67.931458,17.340712 69.029129,17.009356 
	C69.765694,17.008287 70.502266,17.007219 71.606384,17.007860 
	C73.870003,17.340179 75.765434,17.954485 77.662247,17.958748 
	C105.128479,18.020481 132.594910,18.000378 160.529724,18.000494 
	C160.998901,18.168215 160.999649,18.335310 161.000824,18.753052 
z"/>
<path fill="#E71015" opacity="1.000000" stroke="none" 
	d="
M160.532364,211.005585 
	C159.107193,211.338669 157.213867,211.953033 155.319351,211.956757 
	C125.528046,212.015488 95.736588,211.995590 65.477875,211.986298 
	C66.906685,211.652771 68.802231,211.046295 70.698982,211.042542 
	C100.487114,210.983490 130.275406,211.002075 160.532364,211.005585 
z"/>
<path fill="#F11D23" opacity="1.000000" stroke="none" 
	d="
M20.022007,132.423981 
	C23.734671,131.413483 27.445627,130.897156 31.131651,130.240814 
	C32.519238,129.993729 33.849037,129.422134 35.599213,128.997345 
	C34.998455,131.414581 34.003666,133.832932 32.572166,136.624329 
	C30.061085,137.266098 27.099783,136.781265 26.097517,137.960922 
	C24.029535,140.394897 22.158905,139.510300 20.006138,138.993637 
	C20.007553,136.949905 20.008968,134.906174 20.022007,132.423981 
z"/>
<path fill="#E71113" opacity="1.000000" stroke="none" 
	d="
M14.993979,160.996872 
	C14.663690,159.769623 14.047213,158.542908 14.045016,157.315063 
	C13.991763,127.549286 14.000814,97.783386 14.021578,68.017525 
	C14.022142,67.208519 14.276426,66.399696 14.707457,65.766708 
	C14.999671,97.627380 14.996825,129.312134 14.993979,160.996872 
z"/>
<path fill="#F9061A" opacity="1.000000" stroke="none" 
	d="
M15.292646,160.704422 
	C14.996825,129.312134 14.999671,97.627380 15.005987,65.474823 
	C15.339614,66.234016 15.955840,67.460495 15.958038,68.688080 
	C16.011314,98.453644 16.002317,128.219330 15.981628,157.984985 
	C15.981066,158.794067 15.727107,159.602982 15.292646,160.704422 
z"/>
<path fill="#F7F5F2" opacity="1.000000" stroke="none" 
	d="
M162.582809,62.875229 
	C168.541824,67.922386 169.544601,72.000427 166.745834,79.487381 
	C165.019836,81.613541 163.402023,83.376465 161.476425,85.270691 
	C161.649567,81.540092 161.533798,77.472588 162.774246,73.872375 
	C164.093765,70.042740 164.999512,66.691360 162.582809,62.875229 
z"/>
<path fill="#F01218" opacity="1.000000" stroke="none" 
	d="
M20.003307,139.423492 
	C22.158905,139.510300 24.029535,140.394897 26.097517,137.960922 
	C27.099783,136.781265 30.061085,137.266098 32.564816,136.995636 
	C32.200539,140.616180 26.161137,145.208511 22.691027,145.006302 
	C18.771877,144.777924 20.383030,141.832886 20.003307,139.423492 
z"/>
<path fill="#F7F6F3" opacity="1.000000" stroke="none" 
	d="
M79.722473,166.747574 
	C75.909721,166.770081 72.105583,166.804871 68.081177,166.608582 
	C68.658188,165.922882 69.455467,165.468262 70.626373,165.006821 
	C71.000000,165.000000 71.000610,165.000610 71.000610,165.000610 
	C73.855789,167.558945 75.872200,166.545486 77.480759,161.823593 
	C79.887085,161.571854 82.244995,161.325180 85.014755,161.115707 
	C84.473404,162.414169 83.520203,163.675430 81.999413,165.138641 
	C80.874077,165.810898 80.316330,166.281204 79.758575,166.751511 
	C79.758575,166.751511 79.731102,166.759872 79.722473,166.747574 
z"/>
<path fill="#F8F0ED" opacity="1.000000" stroke="none" 
	d="
M158.865219,166.069839 
	C156.508957,166.995880 153.765900,167.879166 150.648987,168.766937 
	C150.275131,168.771439 150.263092,168.820618 150.182556,168.506744 
	C149.741714,168.148758 149.381424,168.104630 149.021133,168.060486 
	C147.073669,166.596924 145.126205,165.133347 143.065643,163.351440 
	C144.805557,162.945587 146.749634,163.184174 148.491257,162.697769 
	C151.467804,161.866486 152.798538,162.332794 151.546783,165.455978 
	C154.081757,165.664841 156.280090,165.845963 158.865219,166.069839 
z"/>
<path fill="#F8F0ED" opacity="1.000000" stroke="none" 
	d="
M154.854553,134.698242 
	C153.013504,135.623566 151.056610,136.236099 148.939590,136.898743 
	C148.939590,135.102127 148.939590,133.301285 148.939590,131.086945 
	C147.352951,131.602905 146.369827,131.922623 144.927750,132.391571 
	C145.457214,130.396133 145.870163,128.839844 146.459732,126.914757 
	C149.337128,129.159119 152.037918,131.772278 154.854553,134.698242 
z"/>
<path fill="#F6EAE6" opacity="1.000000" stroke="none" 
	d="
M63.033691,162.508423 
	C58.415131,158.569153 58.060799,153.479141 60.238579,147.506470 
	C60.320419,147.101944 60.654129,147.046173 60.821739,147.023682 
	C60.973236,148.185867 60.937752,149.370667 60.946430,150.555161 
	C60.955204,151.751831 60.589294,153.745926 61.107639,154.017807 
	C65.072083,156.097275 63.188679,159.307632 63.033691,162.508423 
z"/>
<path fill="#ED0308" opacity="1.000000" stroke="none" 
	d="
M20.590256,60.937363 
	C20.493591,61.377750 20.396925,61.818134 20.204494,63.042679 
	C20.129820,66.890244 20.150913,69.953651 20.104483,73.456696 
	C19.977333,76.271935 19.917706,78.647552 19.858078,81.023163 
	C19.646681,72.676125 19.428421,64.329208 19.276043,55.981091 
	C19.273174,55.823837 20.050627,55.652344 20.717777,55.718040 
	C20.979370,57.019459 20.987185,58.090332 20.810459,59.677490 
	C20.350290,60.429127 20.338404,60.676991 20.590256,60.937363 
z"/>
<path fill="#F8F0ED" opacity="1.000000" stroke="none" 
	d="
M167.837097,147.743713 
	C167.573212,151.715378 167.181503,155.406479 166.472656,159.197464 
	C165.755066,157.938385 165.077423,156.592972 165.010239,155.217743 
	C164.857010,152.081238 165.002945,148.930115 164.991272,145.445343 
	C165.873260,145.891556 166.791290,146.677368 167.837097,147.743713 
z"/>
<path fill="#F8F0ED" opacity="1.000000" stroke="none" 
	d="
M138.856750,118.700890 
	C136.873550,119.619064 134.776993,120.227951 132.234116,120.966469 
	C132.657608,117.984558 133.007584,115.520409 133.636734,113.026215 
	C135.525085,114.794655 137.134232,116.593132 138.856750,118.700890 
z"/>
<path fill="#F8F0ED" opacity="1.000000" stroke="none" 
	d="
M162.847412,142.703461 
	C159.829681,141.630661 156.697922,140.245407 153.435181,138.802216 
	C153.974518,137.664017 154.449707,136.661209 154.956818,135.343933 
	C157.570312,137.483292 160.151871,139.937149 162.847412,142.703461 
z"/>
<path fill="#F8F0ED" opacity="1.000000" stroke="none" 
	d="
M146.268677,126.091736 
	C143.470505,125.227432 140.498108,124.099953 137.379181,122.916885 
	C137.973984,121.663124 138.449493,120.660835 138.957336,119.344116 
	C141.357941,121.295967 143.726181,123.562256 146.268677,126.091736 
z"/>
<path fill="#F6EAE6" opacity="1.000000" stroke="none" 
	d="
M81.655640,125.109528 
	C81.746414,129.634354 78.170059,131.256973 74.360641,132.988785 
	C76.446617,130.399963 78.895988,127.819679 81.655640,125.109528 
z"/>
<path fill="#F6EAE6" opacity="1.000000" stroke="none" 
	d="
M73.665901,133.118851 
	C73.872871,137.765137 69.629662,138.774078 66.349319,140.981049 
	C68.439781,138.394714 70.895866,135.817734 73.665901,133.118851 
z"/>
<path fill="#F8F0ED" opacity="1.000000" stroke="none" 
	d="
M137.995392,158.429474 
	C143.689636,154.808502 142.110352,159.989441 142.955048,162.712646 
	C141.318985,161.624268 139.670746,160.200790 137.995392,158.429474 
z"/>
<path fill="#F6EAE6" opacity="1.000000" stroke="none" 
	d="
M89.674591,117.115013 
	C90.335403,122.161842 84.824890,122.026344 82.351471,124.974548 
	C84.441238,122.393837 86.903725,119.821976 89.674591,117.115013 
z"/>
<path fill="#F8F0ED" opacity="1.000000" stroke="none" 
	d="
M164.816193,144.782379 
	C164.412796,147.510590 163.919937,149.960663 163.427078,152.410751 
	C163.101822,152.403778 162.776566,152.396805 162.451309,152.389832 
	C162.594589,149.486603 162.737885,146.583374 162.932358,143.359116 
	C163.564606,143.526810 164.145660,144.015533 164.816193,144.782379 
z"/>
<path fill="#FAB6B7" opacity="1.000000" stroke="none" 
	d="
M30.998829,42.003155 
	C30.675671,42.102367 30.412811,42.287285 29.745092,42.775719 
	C28.807865,42.982841 28.335796,42.972145 27.863728,42.961452 
	C29.185366,40.881947 30.507004,38.802441 32.104416,36.548191 
	C32.380188,36.373451 32.705692,36.671555 32.850246,37.187370 
	C32.329475,39.136513 31.664152,40.569836 30.998829,42.003155 
z"/>
<path fill="#F6EAE6" opacity="1.000000" stroke="none" 
	d="
M65.622971,141.034882 
	C64.548302,142.963608 63.123966,144.944672 61.348305,146.955994 
	C62.422421,145.019913 63.847855,143.053574 65.622971,141.034882 
z"/>
<path fill="#F43A3F" opacity="1.000000" stroke="none" 
	d="
M54.411606,105.086746 
	C54.519493,104.178154 54.969425,103.231255 55.714401,102.134834 
	C56.444572,101.983368 56.879707,101.981430 57.640747,101.978973 
	C56.895657,103.001785 55.824654,104.025116 54.411606,105.086746 
z"/>
<path fill="#F8F0ED" opacity="1.000000" stroke="none" 
	d="
M134.218063,112.717880 
	C133.754257,111.827408 133.532761,110.782227 133.206329,109.241890 
	C134.370407,109.501244 135.203201,109.686790 136.343811,109.916321 
	C135.921219,110.827934 135.190796,111.695549 134.218063,112.717880 
z"/>
<path fill="#F56B6E" opacity="1.000000" stroke="none" 
	d="
M20.014652,81.120903 
	C19.917706,78.647552 19.977333,76.271935 20.331453,73.682983 
	C20.753622,74.312042 20.881296,75.154449 21.004147,76.413696 
	C21.001606,78.219543 21.003889,79.608551 21.006172,80.997559 
	C21.006172,80.997559 20.759295,81.216362 20.621807,81.315277 
	C20.484320,81.414200 20.171227,81.218643 20.014652,81.120903 
z"/>
<path fill="#F40814" opacity="1.000000" stroke="none" 
	d="
M68.792542,16.736916 
	C67.931458,17.340712 66.833786,17.672068 65.369431,18.003544 
	C65.002052,17.558283 65.001358,17.112902 65.000336,16.333513 
	C66.185318,16.154493 67.370644,16.309484 68.792542,16.736916 
z"/>
<path fill="#FAAFB1" opacity="1.000000" stroke="none" 
	d="
M27.555897,43.064995 
	C28.335796,42.972145 28.807865,42.982841 29.633797,42.993217 
	C29.026581,43.627678 28.065506,44.262455 26.725002,44.865696 
	C26.646408,44.278954 26.947237,43.723747 27.555897,43.064995 
z"/>
<path fill="#EE2E2E" opacity="1.000000" stroke="none" 
	d="
M210.922012,62.984184 
	C210.809540,63.509438 210.695740,63.776508 210.581924,64.043579 
	C210.573318,63.342514 210.564728,62.641457 210.556152,61.940399 
	C210.677658,62.202267 210.799179,62.464134 210.922012,62.984184 
z"/>
<path fill="#F77678" opacity="1.000000" stroke="none" 
	d="
M61.006683,21.330606 
	C62.129093,21.145159 63.206200,21.133396 64.667923,21.246086 
	C63.887856,21.579147 62.723175,21.787756 61.197319,21.918545 
	C60.836140,21.840727 60.961380,21.504292 61.006683,21.330606 
z"/>
<path fill="#D01E14" opacity="1.000000" stroke="none" 
	d="
M80.072609,166.816254 
	C80.316330,166.281204 80.874077,165.810898 81.711227,165.321838 
	C81.455971,165.829056 80.921303,166.355026 80.072609,166.816254 
z"/>
<path fill="#F43A3F" opacity="1.000000" stroke="none" 
	d="
M20.072580,111.315430 
	C20.365919,111.526581 20.645243,112.040550 20.895187,112.866837 
	C20.596725,112.658852 20.327646,112.138542 20.072580,111.315430 
z"/>
<path fill="#F44A4F" opacity="1.000000" stroke="none" 
	d="
M168.070496,59.766510 
	C167.883575,59.979355 167.703613,59.974205 167.365326,59.735767 
	C167.396347,59.254009 167.634018,59.066902 167.920013,58.941158 
	C167.920013,58.941158 168.025085,59.026367 168.077835,59.070961 
	C168.130585,59.115559 168.077484,59.548519 168.070496,59.766510 
z"/>
<path fill="#CD1F12" opacity="1.000000" stroke="none" 
	d="
M149.161972,168.279373 
	C149.381424,168.104630 149.741714,168.148758 150.185883,168.487885 
	C149.947433,168.688019 149.625122,168.593140 149.161972,168.279373 
z"/>
<path fill="#ED0B11" opacity="1.000000" stroke="none" 
	d="
M96.910553,76.450989 
	C105.905251,72.486885 114.871216,68.355927 124.186226,65.283005 
	C130.052597,63.347748 136.441605,62.996758 142.946472,62.307034 
	C143.212158,63.123302 143.127533,63.567612 142.722977,64.129944 
	C140.929581,65.822433 139.456116,67.396904 137.982651,68.971375 
	C137.982651,68.971375 137.997559,68.997116 137.673676,69.117989 
	C134.892456,71.814362 132.435104,74.389870 129.977753,76.965378 
	C129.977753,76.965378 129.997040,76.995964 129.671173,77.117393 
	C126.895592,79.819229 124.445892,82.399643 121.996185,84.980057 
	C121.996185,84.980049 121.995743,84.996078 121.672424,85.119400 
	C121.011139,85.604080 120.683205,85.975456 120.333694,86.325279 
	C113.796913,92.867714 113.796387,92.867188 106.999924,87.019707 
	C106.820114,86.739365 106.640297,86.459023 106.100143,85.785072 
	C103.492203,83.264214 101.244606,81.136963 98.997009,79.009712 
	C98.341164,78.250381 97.685318,77.491043 96.910553,76.450989 
z"/>
<path fill="#F67074" opacity="1.000000" stroke="none" 
	d="
M158.999557,40.999538 
	C153.748566,42.688061 148.446442,44.234238 143.258469,46.098156 
	C135.292786,48.960037 127.400665,52.027550 119.495888,55.056225 
	C118.956032,55.263069 118.570885,55.873718 117.595886,56.646866 
	C109.850357,55.453445 103.891556,59.116558 97.808174,61.935501 
	C96.519585,62.532612 95.912941,64.601402 94.992088,65.992134 
	C93.169510,66.338593 91.346939,66.685051 89.108276,67.049316 
	C87.170654,65.670486 85.649117,64.273865 84.002197,62.593025 
	C83.748505,58.444176 86.856857,57.919373 89.466446,57.119781 
	C96.268776,55.035511 103.154526,53.221977 109.947266,51.108437 
	C117.358185,48.802547 124.732506,46.369106 132.067490,43.831474 
	C141.884445,40.435169 151.605072,36.755966 161.456482,33.465996 
	C165.303757,32.181156 169.393707,31.623049 173.631470,31.212725 
	C170.360291,33.591587 166.771713,35.392162 163.327560,37.436050 
	C161.739319,38.378574 160.433456,39.796936 158.999557,40.999538 
z"/>
<path fill="#E58E87" opacity="1.000000" stroke="none" 
	d="
M75.987022,54.005783 
	C76.893539,55.523373 77.800056,57.040962 78.772285,58.898834 
	C72.200150,57.975544 66.375427,59.300610 61.143284,64.777290 
	C59.326237,64.642891 58.162487,64.323242 56.999466,63.627647 
	C57.670959,61.504429 58.341732,59.757156 59.349892,57.860439 
	C64.123940,56.474201 68.560593,55.237408 73.371162,54.002762 
	C74.492386,54.005203 75.239708,54.005493 75.987022,54.005783 
z"/>
<path fill="#DC6259" opacity="1.000000" stroke="none" 
	d="
M167.898987,58.635197 
	C167.634018,59.066902 167.396347,59.254009 167.097351,59.702477 
	C165.039261,60.015339 163.090805,60.128201 161.086029,60.568951 
	C158.953751,60.201370 156.877838,59.505901 154.163757,58.666870 
	C151.339035,59.313522 149.152435,60.103733 146.965851,60.893948 
	C146.534195,60.977455 146.102539,61.060963 145.343643,61.102455 
	C148.598785,55.608448 153.570129,53.129448 160.550247,54.010521 
	C162.418671,54.654873 163.847260,55.297283 165.621246,55.974159 
	C166.603760,56.782158 167.240845,57.555695 167.898987,58.635197 
z"/>
<path fill="#E58079" opacity="1.000000" stroke="none" 
	d="
M56.998741,64.003593 
	C58.162487,64.323242 59.326237,64.642891 60.865532,64.938126 
	C60.485973,69.127609 59.730865,73.341522 58.656048,77.798508 
	C58.114819,78.030388 57.893303,78.019203 57.340019,77.983780 
	C56.453175,77.144737 55.898098,76.329918 55.167313,75.255493 
	C54.665653,73.576195 54.339710,72.156509 54.155121,70.029739 
	C54.528240,67.883095 54.759998,66.443535 55.290058,64.982025 
	C56.058487,64.641251 56.528614,64.322426 56.998741,64.003593 
z"/>
<path fill="#F6E9E5" opacity="1.000000" stroke="none" 
	d="
M106.964615,87.335388 
	C113.796387,92.867188 113.796913,92.867714 120.333694,86.325279 
	C120.683205,85.975456 121.011139,85.604080 121.664352,85.119370 
	C119.471497,88.723412 116.963394,92.450813 114.688286,95.831970 
	C111.159019,93.687202 108.498749,92.070526 105.665421,90.348686 
	C105.980965,89.675186 106.455132,88.663132 106.964615,87.335388 
z"/>
<path fill="#F6E9E5" opacity="1.000000" stroke="none" 
	d="
M98.956604,79.352066 
	C101.244606,81.136963 103.492203,83.264214 105.858688,85.701355 
	C104.446075,87.101021 102.914558,88.190788 101.268578,89.362007 
	C101.268578,87.148445 101.268578,85.540474 101.268578,83.932503 
	C99.973465,83.932503 98.678352,83.932503 96.952621,83.932503 
	C97.621544,82.488739 98.268867,81.091583 98.956604,79.352066 
z"/>
<path fill="#F4565A" opacity="1.000000" stroke="none" 
	d="
M59.996803,82.998474 
	C60.220173,82.718384 60.443542,82.438286 60.910988,82.036972 
	C62.419384,83.283463 63.683704,84.651192 65.060036,86.317917 
	C63.019440,87.101158 60.866833,87.585388 58.498745,87.745369 
	C58.854443,85.946899 59.425621,84.472687 59.996803,82.998474 
z"/>
<path fill="#F6E9E5" opacity="1.000000" stroke="none" 
	d="
M122.359665,84.988663 
	C124.445892,82.399643 126.895592,79.819229 129.655334,77.108826 
	C129.743210,81.631386 126.167923,83.255394 122.359665,84.988663 
z"/>
<path fill="#F6E9E5" opacity="1.000000" stroke="none" 
	d="
M130.350479,76.974213 
	C132.435104,74.389870 134.892456,71.814362 137.660583,69.111130 
	C138.338776,74.171928 132.807220,74.015656 130.350479,76.974213 
z"/>
<path fill="#F9F2F0" opacity="1.000000" stroke="none" 
	d="
M147.104736,61.197723 
	C149.152435,60.103733 151.339035,59.313522 153.784531,58.699429 
	C151.997208,60.321514 150.951569,64.358444 147.104736,61.197723 
z"/>
<path fill="#F8F0ED" opacity="1.000000" stroke="none" 
	d="
M164.923157,161.097382 
	C164.119339,162.446487 162.942856,163.762192 161.445602,165.178894 
	C160.023117,162.051544 161.589127,160.990845 164.923157,161.097382 
z"/>
<path fill="#F6E9E5" opacity="1.000000" stroke="none" 
	d="
M138.345795,68.980873 
	C139.456116,67.396904 140.929581,65.822433 142.982727,64.120346 
	C143.735687,63.995968 143.908951,63.999203 144.082199,64.002441 
	C142.291122,65.665085 140.500031,67.327728 138.345795,68.980873 
z"/>
<path fill="#F7F6F3" opacity="1.000000" stroke="none" 
	d="
M70.999695,164.999695 
	C71.486664,164.295212 71.973930,163.591034 72.461205,162.886856 
	C72.752045,163.130249 73.042892,163.373642 73.333733,163.617035 
	C72.764069,164.059647 72.194397,164.502258 71.312668,164.972748 
	C71.000610,165.000610 71.000000,165.000000 70.999695,164.999695 
z"/>
<path fill="#F9F2F0" opacity="1.000000" stroke="none" 
	d="
M144.306961,63.830536 
	C143.908951,63.999203 143.735687,63.995968 143.302658,64.002319 
	C143.127533,63.567612 143.212158,63.123302 143.412766,62.359245 
	C143.910416,61.818985 144.292068,61.598473 144.894272,61.438892 
	C144.920441,62.219425 144.726074,62.939026 144.306961,63.830536 
z"/>
<path fill="#F6EAE6" opacity="1.000000" stroke="none" 
	d="
M65.748077,164.954422 
	C64.996132,164.682510 64.197937,164.091248 63.288109,163.215317 
	C64.018257,163.498810 64.860046,164.066940 65.748077,164.954422 
z"/>
<path fill="#F6EAE6" opacity="1.000000" stroke="none" 
	d="
M65.928818,161.313873 
	C66.474121,161.283859 66.859772,161.408630 67.245422,161.533417 
	C67.138985,161.636871 67.009819,161.843826 66.929962,161.826279 
	C66.535866,161.739700 66.154816,161.593704 65.928818,161.313873 
z"/>
<path fill="#F7F5F2" opacity="1.000000" stroke="none" 
	d="
M160.996475,61.474483 
	C161.340332,61.405262 161.746811,61.634102 162.303619,62.052307 
	C161.988983,62.085293 161.524048,61.928917 160.996475,61.474483 
z"/>
<path fill="#F7F6F3" opacity="1.000000" stroke="none" 
	d="
M66.846313,165.664871 
	C66.663925,165.796783 66.336365,165.725479 65.888588,165.425827 
	C66.123322,165.130203 66.434250,165.218277 66.846313,165.664871 
z"/>
<path fill="#E58E87" opacity="1.000000" stroke="none" 
	d="
M78.922836,59.413311 
	C79.196419,59.135433 79.495071,59.255627 79.864105,59.729965 
	C79.662872,59.851082 79.334007,59.760170 78.922836,59.413311 
z"/>
<path fill="#F6656B" opacity="1.000000" stroke="none" 
	d="
M95.283836,65.897827 
	C95.912941,64.601402 96.519585,62.532612 97.808174,61.935501 
	C103.891556,59.116558 109.850357,55.453445 117.536827,56.997044 
	C118.329193,57.772137 118.662720,58.547348 118.998123,59.660896 
	C112.522385,62.230202 106.074799,64.557243 99.538452,66.600311 
	C98.410698,66.952812 96.906105,66.099724 95.283836,65.897827 
z"/>
<path fill="#F89497" opacity="1.000000" stroke="none" 
	d="
M128.986664,21.597298 
	C131.357162,21.506659 133.727646,21.416018 136.513153,21.795200 
	C132.887955,24.369934 128.997925,26.865597 124.772865,28.489500 
	C118.198990,31.016169 111.370972,32.873047 104.698601,35.154041 
	C95.180550,38.407856 85.709961,41.800274 76.211433,45.111492 
	C67.204926,48.251183 58.256390,51.579857 49.156067,54.420868 
	C41.195690,56.906002 33.059753,58.828793 24.891535,60.779346 
	C24.579529,60.284584 24.316799,60.093922 23.993505,59.986698 
	C24.443325,59.143192 24.715992,57.749554 25.369652,57.539066 
	C34.526619,54.590393 43.766823,51.899437 52.916618,48.929634 
	C56.620625,47.727406 60.458244,46.473907 63.689312,44.395370 
	C67.677567,41.829731 71.743980,41.144596 76.336044,40.780014 
	C79.726707,40.510815 82.911118,38.156277 86.280197,37.001514 
	C94.696419,34.116837 103.208092,31.504812 111.577538,28.494440 
	C113.261009,27.888918 114.484917,26.005732 116.335457,24.355942 
	C117.499832,23.999798 118.249458,23.999332 119.448196,24.000381 
	C121.836037,24.000769 123.835526,24.287529 125.691795,23.895729 
	C126.898056,23.641129 127.895607,22.397703 128.986664,21.597298 
z"/>
<path fill="#F78B8E" opacity="1.000000" stroke="none" 
	d="
M23.736198,60.189453 
	C24.316799,60.093922 24.579529,60.284584 24.902596,61.170929 
	C26.061987,62.454876 27.210083,63.819790 28.119627,63.675972 
	C31.688553,63.111675 35.267937,62.324226 38.688732,61.163662 
	C51.804363,56.713951 64.857040,52.078880 77.940010,47.532558 
	C82.127876,46.077274 86.334991,44.677261 90.536415,43.261200 
	C100.690781,39.838715 110.846977,36.421677 120.992172,33.383186 
	C119.521858,34.817493 118.059982,35.868526 116.602234,36.925247 
	C114.732689,38.280499 112.866463,39.640320 110.998802,40.998169 
	C109.932785,40.999161 108.866776,41.000153 107.003113,41.001282 
	C100.906639,42.817791 95.583244,44.568630 90.339752,46.532742 
	C89.677643,46.780750 89.435150,48.148979 88.998245,48.998199 
	C88.248940,48.999069 87.499641,48.999939 85.944748,49.000374 
	C80.383812,48.947662 75.813354,49.344296 72.997253,54.000610 
	C68.560593,55.237408 64.123940,56.474201 59.147583,57.622612 
	C46.283039,61.834087 33.958199,66.133942 21.024889,70.646080 
	C21.024889,67.851669 21.024889,65.411751 21.024889,62.971825 
	C21.842890,62.111954 22.660891,61.252083 23.736198,60.189453 
z"/>
<path fill="#F78386" opacity="1.000000" stroke="none" 
	d="
M20.856174,62.955681 
	C21.024889,65.411751 21.024889,67.851669 21.024889,70.646080 
	C33.958199,66.133942 46.283039,61.834087 58.810188,57.772057 
	C58.341732,59.757156 57.670959,61.504429 56.999466,63.627647 
	C56.528614,64.322426 56.058487,64.641251 54.851746,64.980774 
	C50.317074,65.882599 46.405205,66.437347 42.744965,67.713692 
	C35.426704,70.265602 28.246298,73.212845 21.008972,75.996849 
	C20.881296,75.154449 20.753622,74.312042 20.398977,73.243355 
	C20.150913,69.953651 20.129820,66.890244 20.228619,63.381138 
	C20.348513,62.935444 20.687460,62.939537 20.856174,62.955681 
z"/>
<path fill="#F9A6A8" opacity="1.000000" stroke="none" 
	d="
M118.999084,23.998867 
	C118.249458,23.999332 117.499832,23.999798 116.375412,24.000551 
	C112.307549,24.000883 108.614494,24.000925 104.460815,24.000908 
	C103.401649,23.434034 102.803085,22.867218 102.065018,22.015324 
	C107.304924,21.615767 112.684334,21.501286 118.519623,21.810490 
	C118.983353,22.822403 118.991219,23.410635 118.999084,23.998867 
z"/>
<path fill="#F78386" opacity="1.000000" stroke="none" 
	d="
M20.706364,60.799469 
	C20.338404,60.676991 20.350290,60.429127 20.804396,60.078964 
	C21.004114,60.213837 20.950647,60.446312 20.706364,60.799469 
z"/>
<path fill="#F66B70" opacity="1.000000" stroke="none" 
	d="
M159.446106,40.999989 
	C160.433456,39.796936 161.739319,38.378574 163.327560,37.436050 
	C166.771713,35.392162 170.360291,33.591587 173.944901,31.345936 
	C175.705139,30.997400 177.410263,30.994444 179.539566,30.981060 
	C181.752380,32.381454 181.654770,33.985435 179.594513,34.593594 
	C172.965439,36.550388 167.429901,41.885811 159.446106,40.999989 
z"/>
<path fill="#F88E91" opacity="1.000000" stroke="none" 
	d="
M121.002441,33.002441 
	C110.846977,36.421677 100.690781,39.838715 90.536415,43.261200 
	C86.334991,44.677261 82.127876,46.077274 77.940010,47.532558 
	C64.857040,52.078880 51.804363,56.713951 38.688732,61.163662 
	C35.267937,62.324226 31.688553,63.111675 28.119627,63.675972 
	C27.210083,63.819790 26.061987,62.454876 25.012436,61.391586 
	C33.059753,58.828793 41.195690,56.906002 49.156067,54.420868 
	C58.256390,51.579857 67.204926,48.251183 76.211433,45.111492 
	C85.709961,41.800274 95.180550,38.407856 104.698601,35.154041 
	C111.370972,32.873047 118.198990,31.016169 124.772865,28.489500 
	C128.997925,26.865597 132.887955,24.369934 136.943283,21.914455 
	C141.991821,21.486988 147.025208,21.410084 152.515152,21.820755 
	C152.255615,23.195688 151.711868,24.564665 150.795593,24.892536 
	C144.673355,27.083261 138.459305,29.016367 132.315842,31.150509 
	C131.733109,31.352940 131.431107,32.363537 130.998779,32.998932 
	C130.998779,32.998932 130.499390,32.999260 129.799759,32.998940 
	C126.400902,32.999893 123.701668,33.001167 121.002441,33.002441 
z"/>
<path fill="#F88689" opacity="1.000000" stroke="none" 
	d="
M131.458099,32.999958 
	C131.431107,32.363537 131.733109,31.352940 132.315842,31.150509 
	C138.459305,29.016367 144.673355,27.083261 150.795593,24.892536 
	C151.711868,24.564665 152.255615,23.195688 152.962769,21.940454 
	C156.086182,21.806885 159.218536,22.041187 162.689697,22.379539 
	C162.706848,23.210470 162.426178,24.549330 162.057465,24.574034 
	C154.395569,25.087343 148.289932,29.173677 141.778397,32.627655 
	C139.161652,34.015663 135.243332,32.949924 131.458099,32.999958 
z"/>
<path fill="#F78488" opacity="1.000000" stroke="none" 
	d="
M89.436966,48.999012 
	C89.435150,48.148979 89.677643,46.780750 90.339752,46.532742 
	C95.583244,44.568630 100.906639,42.817791 106.603363,41.001701 
	C103.235008,47.826866 96.755653,48.842243 89.436966,48.999012 
z"/>
<path fill="#F88689" opacity="1.000000" stroke="none" 
	d="
M120.992172,33.383186 
	C123.701668,33.001167 126.400902,32.999893 129.550064,32.999382 
	C129.863678,33.464428 129.846191,34.243805 129.573547,34.346626 
	C123.671158,36.572716 118.870178,41.756165 111.427628,40.999069 
	C112.866463,39.640320 114.732689,38.280499 116.602234,36.925247 
	C118.059982,35.868526 119.521858,34.817493 120.992172,33.383186 
z"/>
<path fill="#F98487" opacity="1.000000" stroke="none" 
	d="
M73.371162,54.002762 
	C75.813354,49.344296 80.383812,48.947662 85.570091,49.000889 
	C82.915977,50.640163 79.830925,52.278492 76.366447,53.961304 
	C75.239708,54.005493 74.492386,54.005203 73.371162,54.002762 
z"/>
<path fill="#FAAFB1" opacity="1.000000" stroke="none" 
	d="
M31.048859,42.316437 
	C31.664152,40.569836 32.329475,39.136513 32.997528,37.351727 
	C36.812988,36.574207 40.782448,36.681145 44.407036,35.615292 
	C52.937408,33.106838 61.527161,30.548649 69.642387,26.984758 
	C73.787468,25.164400 77.577644,23.514118 82.551422,24.000744 
	C81.471405,25.443169 80.053024,27.034861 78.380035,28.286129 
	C76.395020,29.770758 74.190819,30.962336 71.602722,32.639088 
	C69.082863,32.998566 67.041893,32.999870 64.579918,33.000732 
	C57.418072,34.105995 50.577644,34.985546 45.580765,40.997803 
	C43.776337,40.999817 42.388245,41.001434 41.000153,41.003052 
	C37.699730,41.545273 34.399311,42.087498 31.048859,42.316437 
z"/>
<path fill="#FAA9AC" opacity="1.000000" stroke="none" 
	d="
M45.997101,40.997406 
	C50.577644,34.985546 57.418072,34.105995 64.579697,33.333855 
	C65.000313,34.111614 65.000153,34.555805 65.000000,35.000000 
	C59.552483,36.902916 54.104965,38.805832 47.994926,40.854362 
	C46.887302,40.999119 46.442204,40.998264 45.997101,40.997406 
z"/>
<path fill="#F9A6A8" opacity="1.000000" stroke="none" 
	d="
M89.091049,22.074306 
	C91.133797,21.636360 93.138527,21.583530 95.566666,21.615362 
	C94.980286,23.415121 94.160751,25.315529 92.811958,26.700472 
	C92.516075,27.004276 90.336700,25.473751 89.013123,24.396671 
	C89.018692,23.490059 89.035858,22.974741 89.091049,22.074306 
z"/>
<path fill="#F9A6A8" opacity="1.000000" stroke="none" 
	d="
M45.580765,40.997803 
	C46.442204,40.998264 46.887302,40.999119 47.666203,41.000141 
	C45.046101,44.569191 43.187241,44.773804 41.010769,41.385761 
	C42.388245,41.001434 43.776337,40.999817 45.580765,40.997803 
z"/>
<path fill="#F9A6A8" opacity="1.000000" stroke="none" 
	d="
M65.237244,35.272346 
	C65.000153,34.555805 65.000313,34.111614 65.000694,33.334297 
	C67.041893,32.999870 69.082863,32.998566 71.561142,32.996506 
	C69.823792,33.845402 67.649139,34.695049 65.237244,35.272346 
z"/>
<path fill="#F55D60" opacity="1.000000" stroke="none" 
	d="
M59.567329,82.999031 
	C59.425621,84.472687 58.854443,85.946899 58.140842,87.708557 
	C57.998421,87.996010 57.501572,88.005310 57.253220,88.009827 
	C52.851555,88.922775 48.645531,89.642105 44.556717,90.781906 
	C37.620304,92.715500 30.757822,94.914299 23.433687,97.002190 
	C23.288315,96.095390 23.352711,94.569199 23.892900,94.376450 
	C29.269115,92.458122 34.726357,90.767540 40.155376,88.996284 
	C42.786041,88.138023 45.393253,87.206459 48.032787,86.377159 
	C51.723854,85.217476 55.435192,84.122345 59.567329,82.999031 
z"/>
<path fill="#F99D9F" opacity="1.000000" stroke="none" 
	d="
M119.448196,24.000381 
	C118.991219,23.410635 118.983353,22.822403 118.962006,21.942905 
	C122.000412,21.551039 125.052307,21.450439 128.545441,21.473568 
	C127.895607,22.397703 126.898056,23.641129 125.691795,23.895729 
	C123.835526,24.287529 121.836037,24.000769 119.448196,24.000381 
z"/>
<path fill="#F77B7E" opacity="1.000000" stroke="none" 
	d="
M21.004147,76.413696 
	C28.246298,73.212845 35.426704,70.265602 42.744965,67.713692 
	C46.405205,66.437347 50.317074,65.882599 54.553444,65.002724 
	C54.759998,66.443535 54.528240,67.883095 54.150139,69.660805 
	C46.705555,72.282104 39.379143,74.480240 32.121227,76.885094 
	C28.606806,78.049568 25.220905,79.601913 21.391495,80.988113 
	C21.003889,79.608551 21.001606,78.219543 21.004147,76.413696 
z"/>
</svg>