<svg version="1.1" id="Layer_1" xmlns="http://www.w3.org/2000/svg" xmlns:xlink="http://www.w3.org/1999/xlink" x="0px" y="0px"
	 width="100%" viewBox="0 0 225 225" enable-background="new 0 0 225 225" xml:space="preserve">
<path fill="#E2E9EF" opacity="1.000000" stroke="none" 
	d="
M132.000000,226.000000 
	C88.000000,226.000000 44.500004,226.000000 1.000006,226.000000 
	C1.000004,151.000000 1.000004,76.000015 1.000002,1.000016 
	C75.999992,1.000011 150.999985,1.000011 225.999969,1.000005 
	C225.999985,75.999985 225.999985,150.999969 226.000000,225.999969 
	C194.833328,226.000000 163.666672,226.000000 132.000000,226.000000 
M179.976242,121.932053 
	C179.656845,130.884918 178.722748,139.867355 179.151779,148.784210 
	C179.936127,165.086243 163.947617,179.904907 146.947815,179.943192 
	C135.631180,179.968674 124.314514,179.977524 112.090141,179.985275 
	C109.060349,179.987335 106.030556,179.989410 102.466064,179.472626 
	C97.310860,179.646118 92.155647,179.819611 86.380348,179.437607 
	C79.410591,179.297485 72.431442,178.875916 65.474121,179.108246 
	C60.117432,179.287094 56.078602,187.362396 58.111328,192.357758 
	C61.591686,200.910660 69.820862,200.178482 76.301971,200.705551 
	C91.508362,201.942215 106.844589,202.098221 122.115463,201.862656 
	C134.308151,201.674591 146.772736,204.224625 158.669571,199.318909 
	C159.219162,199.092285 159.973633,199.423431 160.617691,199.354523 
	C163.501068,199.046036 166.715790,199.383423 169.183838,198.190430 
	C173.404419,196.150269 177.204559,193.210281 181.095871,190.524475 
	C195.063126,180.884293 202.184616,167.689819 202.031448,150.571564 
	C201.885468,134.255478 201.955887,117.936844 202.038635,101.619873 
	C202.054474,98.496902 203.205627,95.275848 202.730515,92.274582 
	C201.524628,84.657310 199.298996,77.191566 198.282501,69.558495 
	C197.790680,65.865501 196.374939,64.305153 193.084549,63.508419 
	C189.299835,62.591991 186.104095,62.980633 182.875275,65.589027 
	C175.027008,71.929192 179.361206,80.944374 177.685822,88.588310 
	C176.925705,92.056267 179.136368,96.175362 179.999878,100.887390 
	C179.998901,103.257507 179.997925,105.627632 179.993042,108.924606 
	C179.990311,112.947754 179.987579,116.970901 179.976242,121.932053 
M120.597832,47.551872 
	C128.398239,47.367508 136.198654,47.183144 144.759872,47.334015 
	C148.555435,47.536274 152.394073,48.138489 156.124527,47.736511 
	C157.541779,47.583790 159.641190,45.238491 159.835907,43.691872 
	C160.849976,35.637211 159.914581,34.530796 151.938690,33.221642 
	C149.661423,32.847855 147.286804,33.093521 144.959534,32.992954 
	C138.616867,32.718861 131.938492,34.464558 126.383835,29.479481 
	C125.498512,28.684942 123.502144,29.020689 122.018967,29.017004 
	C109.857513,28.986778 97.692368,28.828865 85.536179,29.083717 
	C80.640221,29.186361 75.696533,29.906628 70.898972,30.929377 
	C66.761353,31.811434 62.687576,33.260963 58.795258,34.944416 
	C55.430714,36.399605 52.004128,38.119633 49.250748,40.476887 
	C45.760170,43.465279 43.422318,47.963352 39.686016,50.463249 
	C34.070450,54.220528 34.329266,59.952450 33.058464,65.223335 
	C31.981762,69.689133 31.349665,74.263077 30.548815,78.794113 
	C30.007288,81.857948 29.140665,84.921860 29.070498,88.000572 
	C28.869366,96.825592 28.860064,105.661690 29.083237,114.485657 
	C29.152109,117.208763 30.230776,119.902420 30.810528,122.617371 
	C31.888994,127.667763 35.059361,132.300583 33.192528,137.962799 
	C32.604176,139.747314 33.082104,142.452087 34.116112,144.067245 
	C35.604061,146.391464 44.587135,146.932983 46.163166,144.469009 
	C47.525372,142.339325 46.800362,138.874573 46.999260,135.062744 
	C46.999454,127.375061 46.999653,119.687378 47.000725,111.109917 
	C47.281128,101.819824 48.645252,92.395187 47.513607,83.280411 
	C46.533306,75.384644 48.596176,68.805817 52.124477,62.585117 
	C58.248089,51.788654 68.715858,47.572201 80.510124,47.122875 
	C93.655647,46.622070 106.834885,47.006069 120.597832,47.551872 
M102.503578,151.004074 
	C114.148048,151.001617 125.793373,151.082657 137.436676,150.964783 
	C144.209961,150.896210 148.158157,146.664124 148.135010,139.922440 
	C148.092270,127.483902 137.274658,116.271973 124.767464,115.947945 
	C117.286774,115.754128 109.793312,115.758896 102.312180,115.942719 
	C89.749779,116.251404 78.984749,127.352783 78.865395,139.886307 
	C78.801666,146.578903 82.772896,150.777145 89.529457,150.979431 
	C93.518303,151.098846 97.513603,151.003067 102.503578,151.004074 
M100.964775,106.544418 
	C109.168907,113.035416 117.960899,113.382500 125.044525,107.495018 
	C130.969772,102.570305 133.010269,93.155083 129.502365,86.154869 
	C126.237534,79.639679 120.777267,76.108147 113.552933,76.090538 
	C106.331078,76.072929 100.717598,79.472610 97.592613,86.088852 
	C94.214523,93.240974 95.365295,99.963860 100.964775,106.544418 
z"/>
<path fill="#DDE4EB" opacity="1.000000" stroke="none" 
	d="
M179.999390,99.999084 
	C179.136368,96.175362 176.925705,92.056267 177.685822,88.588310 
	C179.361206,80.944374 175.027008,71.929192 182.875275,65.589027 
	C186.104095,62.980633 189.299835,62.591991 193.084549,63.508419 
	C196.374939,64.305153 197.790680,65.865501 198.282501,69.558495 
	C199.298996,77.191566 201.524628,84.657310 202.730515,92.274582 
	C203.205627,95.275848 202.054474,98.496902 202.038635,101.619873 
	C201.955887,117.936844 201.885468,134.255478 202.031448,150.571564 
	C202.184616,167.689819 195.063126,180.884293 181.095871,190.524475 
	C177.204559,193.210281 173.404419,196.150269 169.183838,198.190430 
	C166.715790,199.383423 163.501068,199.046036 160.617691,199.354523 
	C159.973633,199.423431 159.219162,199.092285 158.669571,199.318909 
	C146.772736,204.224625 134.308151,201.674591 122.115463,201.862656 
	C106.844589,202.098221 91.508362,201.942215 76.301971,200.705551 
	C69.820862,200.178482 61.591686,200.910660 58.111328,192.357758 
	C56.078602,187.362396 60.117432,179.287094 65.474121,179.108246 
	C72.431442,178.875916 79.410591,179.297485 86.531754,180.020081 
	C84.142838,182.928528 82.941826,185.621735 86.002846,188.175385 
	C88.377762,190.156677 91.137787,191.843323 93.983261,193.061523 
	C101.803429,196.409454 109.797325,197.956085 118.560211,197.210236 
	C128.975906,196.323700 139.536087,197.288101 150.010803,196.873383 
	C154.895676,196.679962 160.032349,195.874405 164.519653,194.038239 
	C174.380630,190.003220 183.554214,184.604965 187.883698,174.057678 
	C190.873932,166.773010 194.796295,159.428757 195.652832,151.813171 
	C196.966019,140.137482 196.159500,128.202377 195.945053,116.382957 
	C195.792404,107.969315 187.810577,100.031708 179.999390,99.999084 
z"/>
<path fill="#020304" opacity="1.000000" stroke="none" 
	d="
M102.004791,151.004074 
	C97.513603,151.003067 93.518303,151.098846 89.529457,150.979431 
	C82.772896,150.777145 78.801666,146.578903 78.865395,139.886307 
	C78.984749,127.352783 89.749779,116.251404 102.312180,115.942719 
	C109.793312,115.758896 117.286774,115.754128 124.767464,115.947945 
	C137.274658,116.271973 148.092270,127.483902 148.135010,139.922440 
	C148.158157,146.664124 144.209961,150.896210 137.436676,150.964783 
	C125.793373,151.082657 114.148048,151.001617 102.004791,151.004074 
z"/>
<path fill="#E8EBF2" opacity="1.000000" stroke="none" 
	d="
M46.998016,136.000000 
	C46.800362,138.874573 47.525372,142.339325 46.163166,144.469009 
	C44.587135,146.932983 35.604061,146.391464 34.116112,144.067245 
	C33.082104,142.452087 32.604176,139.747314 33.192528,137.962799 
	C35.059361,132.300583 31.888994,127.667763 30.810528,122.617371 
	C30.230776,119.902420 29.152109,117.208763 29.083237,114.485657 
	C28.860064,105.661690 28.869366,96.825592 29.070498,88.000572 
	C29.140665,84.921860 30.007288,81.857948 30.548815,78.794113 
	C31.349665,74.263077 31.981762,69.689133 33.058464,65.223335 
	C34.329266,59.952450 34.070450,54.220528 39.686016,50.463249 
	C43.422318,47.963352 45.760170,43.465279 49.250748,40.476887 
	C52.004128,38.119633 55.430714,36.399605 58.795258,34.944416 
	C62.687576,33.260963 66.761353,31.811434 70.898972,30.929377 
	C75.696533,29.906628 80.640221,29.186361 85.536179,29.083717 
	C97.692368,28.828865 109.857513,28.986778 122.018967,29.017004 
	C123.502144,29.020689 125.498512,28.684942 126.383835,29.479481 
	C131.938492,34.464558 138.616867,32.718861 144.959534,32.992954 
	C147.286804,33.093521 149.661423,32.847855 151.938690,33.221642 
	C159.914581,34.530796 160.849976,35.637211 159.835907,43.691872 
	C159.641190,45.238491 157.541779,47.583790 156.124527,47.736511 
	C152.394073,48.138489 148.555435,47.536274 144.419891,46.819443 
	C145.714874,42.764984 143.314758,41.235397 140.691849,40.478096 
	C135.798935,39.065372 130.769775,38.129215 125.809967,36.941872 
	C122.183113,36.073631 118.586578,34.392624 114.959000,34.342491 
	C104.186455,34.193604 93.187859,36.088470 82.693016,34.477791 
	C73.531387,33.071724 66.268135,35.667915 58.727592,39.235729 
	C55.766312,40.636864 52.476936,42.167263 50.460796,44.578476 
	C45.706005,50.264984 41.390476,56.365246 37.394928,62.616245 
	C35.889610,64.971291 35.162151,68.192146 35.103798,71.039291 
	C34.858387,83.012955 34.925293,94.995377 35.055882,106.972649 
	C35.086132,109.746780 35.480846,112.617142 36.296612,115.261612 
	C37.987968,120.744438 40.797173,125.982010 41.749298,131.558990 
	C42.405872,135.404846 43.619610,136.414413 46.998016,136.000000 
z"/>
<path fill="#EAEDF4" opacity="1.000000" stroke="none" 
	d="
M46.998638,135.531372 
	C43.619610,136.414413 42.405872,135.404846 41.749298,131.558990 
	C40.797173,125.982010 37.987968,120.744438 36.296612,115.261612 
	C35.480846,112.617142 35.086132,109.746780 35.055882,106.972649 
	C34.925293,94.995377 34.858387,83.012955 35.103798,71.039291 
	C35.162151,68.192146 35.889610,64.971291 37.394928,62.616245 
	C41.390476,56.365246 45.706005,50.264984 50.460796,44.578476 
	C52.476936,42.167263 55.766312,40.636864 58.727592,39.235729 
	C66.268135,35.667915 73.531387,33.071724 82.693016,34.477791 
	C93.187859,36.088470 104.186455,34.193604 114.959000,34.342491 
	C118.586578,34.392624 122.183113,36.073631 125.809967,36.941872 
	C130.769775,38.129215 135.798935,39.065372 140.691849,40.478096 
	C143.314758,41.235397 145.714874,42.764984 144.039490,46.651825 
	C136.198654,47.183144 128.398239,47.367508 120.253685,46.926544 
	C117.586647,41.099339 113.188522,38.849701 107.898804,39.093487 
	C98.016533,39.548931 87.955872,37.183865 78.238907,40.864319 
	C77.123520,41.286789 75.602043,40.484375 74.320419,40.649666 
	C70.641479,41.124146 66.415871,40.832909 63.437153,42.591087 
	C55.542477,47.250896 45.713352,50.309734 43.969593,61.467796 
	C43.877934,62.054306 43.087925,62.501060 42.862823,63.102612 
	C41.860821,65.780304 40.207191,68.469604 40.129585,71.192909 
	C39.816631,82.174400 40.377209,93.188324 39.845882,104.152985 
	C39.566448,109.919518 41.807621,111.939438 46.999847,111.999695 
	C46.999653,119.687378 46.999454,127.375061 46.998638,135.531372 
z"/>
<path fill="#D3DAE3" opacity="1.000000" stroke="none" 
	d="
M179.999634,100.443237 
	C187.810577,100.031708 195.792404,107.969315 195.945053,116.382957 
	C196.159500,128.202377 196.966019,140.137482 195.652832,151.813171 
	C194.796295,159.428757 190.873932,166.773010 187.883698,174.057678 
	C183.554214,184.604965 174.380630,190.003220 164.519653,194.038239 
	C160.032349,195.874405 154.895676,196.679962 150.010803,196.873383 
	C139.536087,197.288101 128.975906,196.323700 118.560211,197.210236 
	C109.797325,197.956085 101.803429,196.409454 93.983261,193.061523 
	C91.137787,191.843323 88.377762,190.156677 86.002846,188.175385 
	C82.941826,185.621735 84.142838,182.928528 86.841805,180.297821 
	C92.155647,179.819611 97.310860,179.646118 102.805443,180.088730 
	C104.707954,187.280624 109.675606,190.061890 115.574013,191.667526 
	C117.949471,192.314133 120.426216,192.894943 122.867142,192.939255 
	C131.354980,193.093277 139.983063,193.934860 148.298645,192.728470 
	C156.156479,191.588501 164.663361,189.702866 171.164505,185.490356 
	C185.812210,175.999161 192.950043,161.538406 192.997818,143.866745 
	C193.008606,139.871185 192.624588,135.833176 193.070877,131.888062 
	C194.331223,120.747185 189.118423,113.352089 179.996948,107.997749 
	C179.997925,105.627632 179.998901,103.257507 179.999634,100.443237 
z"/>
<path fill="#020304" opacity="1.000000" stroke="none" 
	d="
M100.720062,106.272842 
	C95.365295,99.963860 94.214523,93.240974 97.592613,86.088852 
	C100.717598,79.472610 106.331078,76.072929 113.552933,76.090538 
	C120.777267,76.108147 126.237534,79.639679 129.502365,86.154869 
	C133.010269,93.155083 130.969772,102.570305 125.044525,107.495018 
	C117.960899,113.382500 109.168907,113.035416 100.720062,106.272842 
z"/>
<path fill="#EEF1F8" opacity="1.000000" stroke="none" 
	d="
M47.000286,111.554810 
	C41.807621,111.939438 39.566448,109.919518 39.845882,104.152985 
	C40.377209,93.188324 39.816631,82.174400 40.129585,71.192909 
	C40.207191,68.469604 41.860821,65.780304 42.862823,63.102612 
	C43.087925,62.501060 43.877934,62.054306 43.969593,61.467796 
	C45.713352,50.309734 55.542477,47.250896 63.437153,42.591087 
	C66.415871,40.832909 70.641479,41.124146 74.320419,40.649666 
	C75.602043,40.484375 77.123520,41.286789 78.238907,40.864319 
	C87.955872,37.183865 98.016533,39.548931 107.898804,39.093487 
	C113.188522,38.849701 117.586647,41.099339 119.954491,46.653069 
	C106.834885,47.006069 93.655647,46.622070 80.510124,47.122875 
	C68.715858,47.572201 58.248089,51.788654 52.124477,62.585117 
	C48.596176,68.805817 46.533306,75.384644 47.513607,83.280411 
	C48.645252,92.395187 47.281128,101.819824 47.000286,111.554810 
z"/>
<path fill="#C5CCDC" opacity="1.000000" stroke="none" 
	d="
M112.997864,179.993820 
	C124.314514,179.977524 135.631180,179.968674 146.947815,179.943192 
	C163.947617,179.904907 179.936127,165.086243 179.151779,148.784210 
	C178.722748,139.867355 179.656845,130.884918 180.368256,121.465881 
	C186.043228,121.368217 187.657867,125.120110 187.919083,129.471161 
	C188.246933,134.932526 187.870178,140.432220 188.030365,145.908569 
	C188.282776,154.537277 187.151764,162.737259 181.236664,169.531540 
	C179.297958,171.758408 176.351746,173.368713 175.094879,175.876694 
	C172.085556,181.881592 166.603180,184.132874 160.999405,185.911636 
	C148.213715,189.970062 134.962982,187.728333 121.930519,187.703659 
	C118.024361,187.696274 113.491791,185.433975 112.997864,179.993820 
z"/>
<path fill="#CBD3DF" opacity="1.000000" stroke="none" 
	d="
M112.544006,179.989548 
	C113.491791,185.433975 118.024361,187.696274 121.930519,187.703659 
	C134.962982,187.728333 148.213715,189.970062 160.999405,185.911636 
	C166.603180,184.132874 172.085556,181.881592 175.094879,175.876694 
	C176.351746,173.368713 179.297958,171.758408 181.236664,169.531540 
	C187.151764,162.737259 188.282776,154.537277 188.030365,145.908569 
	C187.870178,140.432220 188.246933,134.932526 187.919083,129.471161 
	C187.657867,125.120110 186.043228,121.368217 180.372559,120.996872 
	C179.987579,116.970901 179.990311,112.947754 179.994995,108.461182 
	C189.118423,113.352089 194.331223,120.747185 193.070877,131.888062 
	C192.624588,135.833176 193.008606,139.871185 192.997818,143.866745 
	C192.950043,161.538406 185.812210,175.999161 171.164505,185.490356 
	C164.663361,189.702866 156.156479,191.588501 148.298645,192.728470 
	C139.983063,193.934860 131.354980,193.093277 122.867142,192.939255 
	C120.426216,192.894943 117.949471,192.314133 115.574013,191.667526 
	C109.675606,190.061890 104.707954,187.280624 103.072792,180.348145 
	C106.030556,179.989410 109.060349,179.987335 112.544006,179.989548 
z"/>
</svg>