<svg version="1.1" id="Layer_1" xmlns="http://www.w3.org/2000/svg" xmlns:xlink="http://www.w3.org/1999/xlink" x="0px" y="0px"
	 width="100%" viewBox="0 0 224 224" enable-background="new 0 0 224 224" xml:space="preserve">
<path fill="#000000" opacity="1.000000" stroke="none" 
	d="
M73.071800,131.027512 
	C76.553841,129.030441 79.699677,127.177994 82.901123,125.427238 
	C85.882484,123.796837 88.559196,124.455360 90.115257,127.376984 
	C91.572197,130.112503 90.572830,132.581512 87.878288,134.158279 
	C79.853363,138.854218 71.843018,143.577911 63.739315,148.134857 
	C60.849907,149.759659 57.395260,150.657791 55.408657,147.097748 
	C53.363842,143.433395 55.596382,140.869705 58.879974,139.053635 
	C63.529274,136.482239 68.135330,133.832672 73.071800,131.027512 
z"/>
<path fill="#000000" opacity="1.000000" stroke="none" 
	d="
M102.201630,86.750603 
	C99.025612,91.842537 95.393959,92.060898 92.614777,87.466286 
	C87.965378,79.779762 83.461426,72.001976 79.057495,64.171928 
	C77.370026,61.171665 76.107491,57.678974 80.084663,55.487061 
	C83.994362,53.332333 86.205643,56.024433 88.004417,59.153515 
	C92.232147,66.507919 96.505325,73.836197 100.747917,81.182091 
	C101.668976,82.776863 102.508545,84.410042 102.201630,86.750603 
z"/>
<path fill="#000000" opacity="1.000000" stroke="none" 
	d="
M84.383255,102.125870 
	C75.441795,97.243546 66.877983,92.472305 58.354767,87.629616 
	C55.229309,85.853813 53.494930,83.224632 55.599781,79.796921 
	C57.632656,76.486412 60.800076,77.294067 63.536415,78.824562 
	C71.514671,83.286957 79.383583,87.944389 87.320015,92.482254 
	C89.750961,93.872215 91.102478,95.817841 90.451843,98.625465 
	C89.772530,101.556831 87.621010,102.519417 84.383255,102.125870 
z"/>
<path fill="#000000" opacity="1.000000" stroke="none" 
	d="
M161.834488,147.309662 
	C154.142731,142.907837 146.834427,138.584412 139.427704,134.436768 
	C136.213013,132.636597 136.056854,129.816711 137.147369,127.144913 
	C138.411484,124.047813 141.494476,123.999252 143.977356,125.371666 
	C152.713974,130.200836 161.337326,135.239746 169.918549,140.342209 
	C172.420197,141.829712 172.812332,144.285446 171.619186,146.904114 
	C170.422516,149.530548 168.201630,149.902084 165.746948,149.199219 
	C164.493973,148.840469 163.363724,148.053040 161.834488,147.309662 
z"/>
<path fill="#000000" opacity="1.000000" stroke="none" 
	d="
M94.584808,156.536087 
	C92.164635,160.742493 89.981148,164.662079 87.706512,168.528030 
	C85.924713,171.556381 83.420471,173.540848 79.914497,171.534378 
	C76.558014,169.613449 77.163078,166.370377 78.687393,163.638977 
	C83.218651,155.519485 88.018051,147.550110 92.646614,139.484177 
	C94.408516,136.413803 97.185287,135.876236 99.900803,137.199692 
	C103.060524,138.739624 102.879280,141.837173 101.470581,144.556061 
	C99.409798,148.533493 97.027496,152.344315 94.584808,156.536087 
z"/>
<path fill="#000000" opacity="1.000000" stroke="none" 
	d="
M139.722427,169.379730 
	C135.174408,161.411362 130.798340,153.781677 126.442848,146.140274 
	C124.715813,143.110275 123.306152,139.897766 126.839653,137.286301 
	C129.584976,135.257339 133.155792,137.008377 135.595657,141.257614 
	C139.890778,148.737961 144.228668,156.195755 148.378937,163.756149 
	C149.813950,166.370270 150.226257,169.321762 147.274673,171.307098 
	C144.445999,173.209778 141.920258,172.291672 139.722427,169.379730 
z"/>
<path fill="#000000" opacity="1.000000" stroke="none" 
	d="
M161.000015,108.687195 
	C165.988022,108.696022 170.477219,108.735435 174.965897,108.704315 
	C178.332626,108.680969 180.659088,110.372147 180.668533,113.593643 
	C180.678177,116.879295 178.345245,118.384399 174.919952,118.351814 
	C165.444214,118.261642 155.966934,118.336395 146.490265,118.344521 
	C143.383759,118.347183 140.588501,117.618919 140.596451,113.870796 
	C140.604263,110.184357 143.009125,108.672287 146.535233,108.687294 
	C151.190399,108.707115 155.845718,108.689178 161.000015,108.687195 
z"/>
<path fill="#000000" opacity="1.000000" stroke="none" 
	d="
M80.646530,118.341522 
	C71.051430,118.378204 61.923317,118.380669 52.795692,118.448532 
	C49.229004,118.475044 46.414299,117.671432 46.555397,113.321190 
	C46.686340,109.283859 49.389374,108.600655 52.736763,108.623558 
	C61.865639,108.686028 70.995117,108.661102 80.124359,108.667610 
	C83.176620,108.669792 85.978836,109.238251 86.210167,112.973091 
	C86.421135,116.379135 84.543465,118.190651 80.646530,118.341522 
z"/>
<path fill="#000000" opacity="1.000000" stroke="none" 
	d="
M108.674011,166.971710 
	C108.677032,159.829758 108.719101,153.181732 108.667702,146.534439 
	C108.640038,142.956619 110.036575,140.694855 113.861183,140.774902 
	C117.606773,140.853287 118.389122,143.338455 118.363907,146.568420 
	C118.291275,155.874680 118.259193,165.182800 118.372879,174.488220 
	C118.416290,178.041489 117.261497,180.468842 113.472702,180.553085 
	C109.411728,180.643341 108.682175,177.744553 108.684319,174.446045 
	C108.685829,172.119339 108.677879,169.792648 108.674011,166.971710 
z"/>
<path fill="#000000" opacity="1.000000" stroke="none" 
	d="
M108.652954,78.780579 
	C108.653702,69.841164 108.695419,61.374271 108.638496,52.908047 
	C108.614891,49.398117 109.197838,46.413383 113.583054,46.492069 
	C117.969711,46.570778 118.385391,49.656544 118.363884,53.102879 
	C118.310043,61.735168 118.309883,70.368271 118.366043,79.000542 
	C118.389122,82.547516 118.174850,86.050171 113.594513,86.211136 
	C108.826462,86.378700 108.693314,82.726929 108.652954,78.780579 
z"/>
<path fill="#000000" opacity="1.000000" stroke="none" 
	d="
M141.282578,92.320473 
	C143.810425,91.153458 145.580063,89.039902 148.395874,89.485535 
	C149.179474,91.118996 147.760544,92.647987 148.532516,94.349098 
	C151.052383,99.901802 145.460648,100.016693 142.936646,101.792976 
	C140.711334,103.359062 138.211151,101.931442 137.225906,99.548630 
	C135.758224,95.999023 138.018570,93.965096 141.282578,92.320473 
z"/>
</svg>